<svg width="1437" height="1916" viewBox="0 0 1437 1916" fill="none" xmlns="http://www.w3.org/2000/svg">
<circle cx="321.192" cy="122.192" r="67.1921" fill="#34344A"/>
<path d="M294.023 129.88V133H281.015V116.2H293.711V119.32H284.879V122.968H292.679V125.992H284.879V129.88H294.023ZM312.525 116.2V133H309.333L300.957 122.8V133H297.117V116.2H300.333L308.685 126.4V116.2H312.525ZM319.98 119.368H314.604V116.2H329.244V119.368H323.868V133H319.98V119.368ZM342.04 133L338.8 128.32H338.608H335.224V133H331.336V116.2H338.608C340.096 116.2 341.384 116.448 342.472 116.944C343.576 117.44 344.424 118.144 345.016 119.056C345.608 119.968 345.904 121.048 345.904 122.296C345.904 123.544 345.6 124.624 344.992 125.536C344.4 126.432 343.552 127.12 342.448 127.6L346.216 133H342.04ZM341.968 122.296C341.968 121.352 341.664 120.632 341.056 120.136C340.448 119.624 339.56 119.368 338.392 119.368H335.224V125.224H338.392C339.56 125.224 340.448 124.968 341.056 124.456C341.664 123.944 341.968 123.224 341.968 122.296ZM356.814 127.048V133H352.926V127L346.422 116.2H350.55L355.038 123.664L359.526 116.2H363.342L356.814 127.048Z" fill="#FEFCD5"/>
<circle cx="1076.19" cy="1773.19" r="67.1921" fill="#34344A"/>
<path d="M1031.97 1784.29C1030.25 1784.29 1028.7 1783.92 1027.31 1783.18C1025.93 1782.43 1024.85 1781.4 1024.05 1780.09C1023.26 1778.76 1022.87 1777.26 1022.87 1775.6C1022.87 1773.94 1023.26 1772.45 1024.05 1771.14C1024.85 1769.81 1025.93 1768.78 1027.31 1768.04C1028.7 1767.29 1030.26 1766.91 1031.99 1766.91C1033.45 1766.91 1034.76 1767.17 1035.93 1767.68C1037.11 1768.19 1038.1 1768.93 1038.9 1769.89L1036.41 1772.19C1035.27 1770.88 1033.86 1770.22 1032.18 1770.22C1031.14 1770.22 1030.21 1770.46 1029.4 1770.92C1028.58 1771.37 1027.94 1772 1027.48 1772.82C1027.03 1773.63 1026.81 1774.56 1026.81 1775.6C1026.81 1776.64 1027.03 1777.57 1027.48 1778.38C1027.94 1779.2 1028.58 1779.84 1029.4 1780.3C1030.21 1780.75 1031.14 1780.98 1032.18 1780.98C1033.86 1780.98 1035.27 1780.31 1036.41 1778.98L1038.9 1781.29C1038.1 1782.26 1037.11 1783.01 1035.93 1783.52C1034.74 1784.03 1033.42 1784.29 1031.97 1784.29ZM1041.53 1767.2H1045.42V1780.83H1053.84V1784H1041.53V1767.2ZM1063.87 1784.29C1062.12 1784.29 1060.55 1783.91 1059.14 1783.16C1057.75 1782.41 1056.65 1781.38 1055.85 1780.06C1055.07 1778.74 1054.67 1777.25 1054.67 1775.6C1054.67 1773.95 1055.07 1772.47 1055.85 1771.16C1056.65 1769.83 1057.75 1768.79 1059.14 1768.04C1060.55 1767.29 1062.12 1766.91 1063.87 1766.91C1065.61 1766.91 1067.18 1767.29 1068.57 1768.04C1069.96 1768.79 1071.06 1769.83 1071.86 1771.16C1072.66 1772.47 1073.06 1773.95 1073.06 1775.6C1073.06 1777.25 1072.66 1778.74 1071.86 1780.06C1071.06 1781.38 1069.96 1782.41 1068.57 1783.16C1067.18 1783.91 1065.61 1784.29 1063.87 1784.29ZM1063.87 1780.98C1064.86 1780.98 1065.75 1780.75 1066.55 1780.3C1067.35 1779.84 1067.98 1779.2 1068.43 1778.38C1068.89 1777.57 1069.12 1776.64 1069.12 1775.6C1069.12 1774.56 1068.89 1773.63 1068.43 1772.82C1067.98 1772 1067.35 1771.37 1066.55 1770.92C1065.75 1770.46 1064.86 1770.22 1063.87 1770.22C1062.87 1770.22 1061.98 1770.46 1061.18 1770.92C1060.38 1771.37 1059.75 1772 1059.28 1772.82C1058.83 1773.63 1058.61 1774.56 1058.61 1775.6C1058.61 1776.64 1058.83 1777.57 1059.28 1778.38C1059.75 1779.2 1060.38 1779.84 1061.18 1780.3C1061.98 1780.75 1062.87 1780.98 1063.87 1780.98ZM1081.5 1784.29C1080.17 1784.29 1078.88 1784.11 1077.64 1783.76C1076.4 1783.39 1075.41 1782.92 1074.66 1782.34L1075.98 1779.42C1076.7 1779.94 1077.56 1780.37 1078.55 1780.69C1079.54 1781.01 1080.53 1781.17 1081.52 1781.17C1082.63 1781.17 1083.44 1781.01 1083.97 1780.69C1084.5 1780.35 1084.76 1779.91 1084.76 1779.37C1084.76 1778.97 1084.6 1778.64 1084.28 1778.38C1083.98 1778.11 1083.58 1777.9 1083.08 1777.74C1082.6 1777.58 1081.95 1777.4 1081.12 1777.21C1079.84 1776.9 1078.79 1776.6 1077.97 1776.3C1077.16 1775.99 1076.45 1775.5 1075.86 1774.83C1075.28 1774.16 1075 1773.26 1075 1772.14C1075 1771.17 1075.26 1770.29 1075.79 1769.5C1076.32 1768.7 1077.11 1768.07 1078.16 1767.61C1079.24 1767.14 1080.54 1766.91 1082.08 1766.91C1083.15 1766.91 1084.2 1767.04 1085.22 1767.3C1086.24 1767.55 1087.14 1767.92 1087.91 1768.4L1086.71 1771.35C1085.16 1770.47 1083.6 1770.03 1082.05 1770.03C1080.96 1770.03 1080.16 1770.21 1079.63 1770.56C1079.12 1770.91 1078.86 1771.38 1078.86 1771.95C1078.86 1772.53 1079.16 1772.96 1079.75 1773.25C1080.36 1773.52 1081.28 1773.79 1082.51 1774.06C1083.79 1774.37 1084.84 1774.67 1085.65 1774.98C1086.47 1775.28 1087.16 1775.76 1087.74 1776.42C1088.33 1777.07 1088.63 1777.96 1088.63 1779.08C1088.63 1780.04 1088.36 1780.92 1087.81 1781.72C1087.28 1782.5 1086.48 1783.13 1085.41 1783.59C1084.34 1784.06 1083.04 1784.29 1081.5 1784.29ZM1091.28 1767.2H1095.17V1784H1091.28V1767.2ZM1114.57 1767.2V1784H1111.38L1103 1773.8V1784H1099.16V1767.2H1102.38L1110.73 1777.4V1767.2H1114.57ZM1129.89 1775.34H1133.45V1782.15C1132.53 1782.84 1131.48 1783.37 1130.28 1783.74C1129.08 1784.1 1127.87 1784.29 1126.65 1784.29C1124.91 1784.29 1123.34 1783.92 1121.95 1783.18C1120.56 1782.43 1119.46 1781.4 1118.66 1780.09C1117.88 1778.76 1117.49 1777.26 1117.49 1775.6C1117.49 1773.94 1117.88 1772.45 1118.66 1771.14C1119.46 1769.81 1120.57 1768.78 1121.97 1768.04C1123.38 1767.29 1124.97 1766.91 1126.73 1766.91C1128.2 1766.91 1129.53 1767.16 1130.73 1767.66C1131.93 1768.15 1132.94 1768.87 1133.76 1769.82L1131.26 1772.12C1130.06 1770.86 1128.61 1770.22 1126.92 1770.22C1125.85 1770.22 1124.89 1770.45 1124.06 1770.9C1123.23 1771.34 1122.58 1771.98 1122.12 1772.79C1121.65 1773.61 1121.42 1774.54 1121.42 1775.6C1121.42 1776.64 1121.65 1777.57 1122.12 1778.38C1122.58 1779.2 1123.22 1779.84 1124.04 1780.3C1124.87 1780.75 1125.81 1780.98 1126.87 1780.98C1127.99 1780.98 1129 1780.74 1129.89 1780.26V1775.34Z" fill="#FEFCD5"/>
<rect x="926" y="1486" width="300" height="120" rx="20" fill="#FD5523"/>
<path d="M1042.2 1550.88V1554H1029.19V1537.2H1041.88V1540.32H1033.05V1543.97H1040.85V1546.99H1033.05V1550.88H1042.2ZM1055.71 1554L1051.65 1548.17L1047.67 1554H1043.2L1049.42 1545.46L1043.52 1537.2H1047.93L1051.8 1542.65L1055.59 1537.2H1059.79L1053.93 1545.31L1060.2 1554H1055.71ZM1068.99 1537.2C1070.48 1537.2 1071.77 1537.45 1072.85 1537.94C1073.96 1538.44 1074.81 1539.14 1075.4 1540.06C1075.99 1540.97 1076.29 1542.05 1076.29 1543.3C1076.29 1544.53 1075.99 1545.61 1075.4 1546.54C1074.81 1547.45 1073.96 1548.15 1072.85 1548.65C1071.77 1549.13 1070.48 1549.37 1068.99 1549.37H1065.61V1554H1061.72V1537.2H1068.99ZM1068.77 1546.2C1069.94 1546.2 1070.83 1545.95 1071.44 1545.46C1072.05 1544.94 1072.35 1544.22 1072.35 1543.3C1072.35 1542.35 1072.05 1541.63 1071.44 1541.14C1070.83 1540.62 1069.94 1540.37 1068.77 1540.37H1065.61V1546.2H1068.77ZM1087.43 1554.29C1085.69 1554.29 1084.11 1553.91 1082.7 1553.16C1081.31 1552.41 1080.22 1551.38 1079.42 1550.06C1078.63 1548.74 1078.24 1547.25 1078.24 1545.6C1078.24 1543.95 1078.63 1542.47 1079.42 1541.16C1080.22 1539.83 1081.31 1538.79 1082.7 1538.04C1084.11 1537.29 1085.69 1536.91 1087.43 1536.91C1089.18 1536.91 1090.74 1537.29 1092.14 1538.04C1093.53 1538.79 1094.62 1539.83 1095.42 1541.16C1096.22 1542.47 1096.62 1543.95 1096.62 1545.6C1096.62 1547.25 1096.22 1548.74 1095.42 1550.06C1094.62 1551.38 1093.53 1552.41 1092.14 1553.16C1090.74 1553.91 1089.18 1554.29 1087.43 1554.29ZM1087.43 1550.98C1088.42 1550.98 1089.32 1550.75 1090.12 1550.3C1090.92 1549.84 1091.54 1549.2 1091.99 1548.38C1092.46 1547.57 1092.69 1546.64 1092.69 1545.6C1092.69 1544.56 1092.46 1543.63 1091.99 1542.82C1091.54 1542 1090.92 1541.37 1090.12 1540.92C1089.32 1540.46 1088.42 1540.22 1087.43 1540.22C1086.44 1540.22 1085.54 1540.46 1084.74 1540.92C1083.94 1541.37 1083.31 1542 1082.85 1542.82C1082.4 1543.63 1082.18 1544.56 1082.18 1545.6C1082.18 1546.64 1082.4 1547.57 1082.85 1548.38C1083.31 1549.2 1083.94 1549.84 1084.74 1550.3C1085.54 1550.75 1086.44 1550.98 1087.43 1550.98ZM1110.25 1554L1107.01 1549.32H1106.82H1103.43V1554H1099.55V1537.2H1106.82C1108.31 1537.2 1109.59 1537.45 1110.68 1537.94C1111.79 1538.44 1112.63 1539.14 1113.23 1540.06C1113.82 1540.97 1114.11 1542.05 1114.11 1543.3C1114.11 1544.54 1113.81 1545.62 1113.2 1546.54C1112.61 1547.43 1111.76 1548.12 1110.66 1548.6L1114.43 1554H1110.25ZM1110.18 1543.3C1110.18 1542.35 1109.87 1541.63 1109.27 1541.14C1108.66 1540.62 1107.77 1540.37 1106.6 1540.37H1103.43V1546.22H1106.6C1107.77 1546.22 1108.66 1545.97 1109.27 1545.46C1109.87 1544.94 1110.18 1544.22 1110.18 1543.3ZM1120.44 1540.37H1115.06V1537.2H1129.7V1540.37H1124.33V1554H1120.44V1540.37Z" fill="#FEFCD5"/>
<rect x="171" y="350" width="300" height="120" rx="20" fill="#FD5523"/>
<path d="M281.189 401.8L275.693 418.6H271.517L267.821 407.224L264.005 418.6H259.853L254.333 401.8H258.365L262.157 413.608L266.117 401.8H269.717L273.557 413.704L277.469 401.8H281.189ZM296.367 415.48V418.6H283.359V401.8H296.055V404.92H287.223V408.568H295.023V411.592H287.223V415.48H296.367ZM299.461 401.8H303.349V415.432H311.773V418.6H299.461V401.8ZM321.704 418.888C319.992 418.888 318.44 418.52 317.048 417.784C315.672 417.032 314.584 416 313.784 414.688C313 413.36 312.608 411.864 312.608 410.2C312.608 408.536 313 407.048 313.784 405.736C314.584 404.408 315.672 403.376 317.048 402.64C318.44 401.888 320 401.512 321.728 401.512C323.184 401.512 324.496 401.768 325.664 402.28C326.848 402.792 327.84 403.528 328.64 404.488L326.144 406.792C325.008 405.48 323.6 404.824 321.92 404.824C320.88 404.824 319.952 405.056 319.136 405.52C318.32 405.968 317.68 406.6 317.216 407.416C316.768 408.232 316.544 409.16 316.544 410.2C316.544 411.24 316.768 412.168 317.216 412.984C317.68 413.8 318.32 414.44 319.136 414.904C319.952 415.352 320.88 415.576 321.92 415.576C323.6 415.576 325.008 414.912 326.144 413.584L328.64 415.888C327.84 416.864 326.848 417.608 325.664 418.12C324.48 418.632 323.16 418.888 321.704 418.888ZM339.05 418.888C337.306 418.888 335.73 418.512 334.322 417.76C332.93 417.008 331.834 415.976 331.034 414.664C330.25 413.336 329.858 411.848 329.858 410.2C329.858 408.552 330.25 407.072 331.034 405.76C331.834 404.432 332.93 403.392 334.322 402.64C335.73 401.888 337.306 401.512 339.05 401.512C340.794 401.512 342.362 401.888 343.754 402.64C345.146 403.392 346.242 404.432 347.042 405.76C347.842 407.072 348.242 408.552 348.242 410.2C348.242 411.848 347.842 413.336 347.042 414.664C346.242 415.976 345.146 417.008 343.754 417.76C342.362 418.512 340.794 418.888 339.05 418.888ZM339.05 415.576C340.042 415.576 340.938 415.352 341.738 414.904C342.538 414.44 343.162 413.8 343.61 412.984C344.074 412.168 344.306 411.24 344.306 410.2C344.306 409.16 344.074 408.232 343.61 407.416C343.162 406.6 342.538 405.968 341.738 405.52C340.938 405.056 340.042 404.824 339.05 404.824C338.058 404.824 337.162 405.056 336.362 405.52C335.562 405.968 334.93 406.6 334.466 407.416C334.018 408.232 333.794 409.16 333.794 410.2C333.794 411.24 334.018 412.168 334.466 412.984C334.93 413.8 335.562 414.44 336.362 414.904C337.162 415.352 338.058 415.576 339.05 415.576ZM366.452 418.6L366.428 408.52L361.484 416.824H359.732L354.812 408.736V418.6H351.164V401.8H354.38L360.668 412.24L366.86 401.8H370.052L370.1 418.6H366.452ZM387.094 415.48V418.6H374.086V401.8H386.782V404.92H377.95V408.568H385.75V411.592H377.95V415.48H387.094Z" fill="#FEFCD5"/>
<rect x="171" y="544" width="300" height="120" rx="20" fill="#FD5523"/>
<path d="M276.087 585.288C274.375 585.288 272.823 584.92 271.431 584.184C270.055 583.432 268.967 582.4 268.167 581.088C267.383 579.76 266.991 578.264 266.991 576.6C266.991 574.936 267.383 573.448 268.167 572.136C268.967 570.808 270.055 569.776 271.431 569.04C272.823 568.288 274.383 567.912 276.111 567.912C277.567 567.912 278.879 568.168 280.047 568.68C281.231 569.192 282.223 569.928 283.023 570.888L280.527 573.192C279.391 571.88 277.983 571.224 276.303 571.224C275.263 571.224 274.335 571.456 273.519 571.92C272.703 572.368 272.063 573 271.599 573.816C271.151 574.632 270.927 575.56 270.927 576.6C270.927 577.64 271.151 578.568 271.599 579.384C272.063 580.2 272.703 580.84 273.519 581.304C274.335 581.752 275.263 581.976 276.303 581.976C277.983 581.976 279.391 581.312 280.527 579.984L283.023 582.288C282.223 583.264 281.231 584.008 280.047 584.52C278.863 585.032 277.543 585.288 276.087 585.288ZM301.056 568.2V585H297.168V578.112H289.536V585H285.648V568.2H289.536V574.824H297.168V568.2H301.056ZM313.167 585.288C311.423 585.288 309.847 584.912 308.439 584.16C307.047 583.408 305.951 582.376 305.151 581.064C304.367 579.736 303.975 578.248 303.975 576.6C303.975 574.952 304.367 573.472 305.151 572.16C305.951 570.832 307.047 569.792 308.439 569.04C309.847 568.288 311.423 567.912 313.167 567.912C314.911 567.912 316.479 568.288 317.871 569.04C319.263 569.792 320.359 570.832 321.159 572.16C321.959 573.472 322.359 574.952 322.359 576.6C322.359 578.248 321.959 579.736 321.159 581.064C320.359 582.376 319.263 583.408 317.871 584.16C316.479 584.912 314.911 585.288 313.167 585.288ZM313.167 581.976C314.159 581.976 315.055 581.752 315.855 581.304C316.655 580.84 317.279 580.2 317.727 579.384C318.191 578.568 318.423 577.64 318.423 576.6C318.423 575.56 318.191 574.632 317.727 573.816C317.279 573 316.655 572.368 315.855 571.92C315.055 571.456 314.159 571.224 313.167 571.224C312.175 571.224 311.279 571.456 310.479 571.92C309.679 572.368 309.047 573 308.583 573.816C308.135 574.632 307.911 575.56 307.911 576.6C307.911 577.64 308.135 578.568 308.583 579.384C309.047 580.2 309.679 580.84 310.479 581.304C311.279 581.752 312.175 581.976 313.167 581.976ZM333.417 585.288C331.673 585.288 330.097 584.912 328.689 584.16C327.297 583.408 326.201 582.376 325.401 581.064C324.617 579.736 324.225 578.248 324.225 576.6C324.225 574.952 324.617 573.472 325.401 572.16C326.201 570.832 327.297 569.792 328.689 569.04C330.097 568.288 331.673 567.912 333.417 567.912C335.161 567.912 336.729 568.288 338.121 569.04C339.513 569.792 340.609 570.832 341.409 572.16C342.209 573.472 342.609 574.952 342.609 576.6C342.609 578.248 342.209 579.736 341.409 581.064C340.609 582.376 339.513 583.408 338.121 584.16C336.729 584.912 335.161 585.288 333.417 585.288ZM333.417 581.976C334.409 581.976 335.305 581.752 336.105 581.304C336.905 580.84 337.529 580.2 337.977 579.384C338.441 578.568 338.673 577.64 338.673 576.6C338.673 575.56 338.441 574.632 337.977 573.816C337.529 573 336.905 572.368 336.105 571.92C335.305 571.456 334.409 571.224 333.417 571.224C332.425 571.224 331.529 571.456 330.729 571.92C329.929 572.368 329.297 573 328.833 573.816C328.385 574.632 328.161 575.56 328.161 576.6C328.161 577.64 328.385 578.568 328.833 579.384C329.297 580.2 329.929 580.84 330.729 581.304C331.529 581.752 332.425 581.976 333.417 581.976ZM351.051 585.288C349.723 585.288 348.435 585.112 347.187 584.76C345.955 584.392 344.963 583.92 344.211 583.344L345.531 580.416C346.251 580.944 347.107 581.368 348.099 581.688C349.091 582.008 350.083 582.168 351.075 582.168C352.179 582.168 352.995 582.008 353.523 581.688C354.051 581.352 354.315 580.912 354.315 580.368C354.315 579.968 354.155 579.64 353.835 579.384C353.531 579.112 353.131 578.896 352.635 578.736C352.155 578.576 351.499 578.4 350.667 578.208C349.387 577.904 348.339 577.6 347.523 577.296C346.707 576.992 346.003 576.504 345.411 575.832C344.835 575.16 344.547 574.264 344.547 573.144C344.547 572.168 344.811 571.288 345.339 570.504C345.867 569.704 346.659 569.072 347.715 568.608C348.787 568.144 350.091 567.912 351.627 567.912C352.699 567.912 353.747 568.04 354.771 568.296C355.795 568.552 356.691 568.92 357.459 569.4L356.259 572.352C354.707 571.472 353.155 571.032 351.603 571.032C350.515 571.032 349.707 571.208 349.179 571.56C348.667 571.912 348.411 572.376 348.411 572.952C348.411 573.528 348.707 573.96 349.299 574.248C349.907 574.52 350.827 574.792 352.059 575.064C353.339 575.368 354.387 575.672 355.203 575.976C356.019 576.28 356.715 576.76 357.291 577.416C357.883 578.072 358.179 578.96 358.179 580.08C358.179 581.04 357.907 581.92 357.363 582.72C356.835 583.504 356.035 584.128 354.963 584.592C353.891 585.056 352.587 585.288 351.051 585.288ZM373.844 581.88V585H360.836V568.2H373.532V571.32H364.7V574.968H372.5V577.992H364.7V581.88H373.844ZM205.398 597.2H209.286V614H205.398V597.2ZM228.681 597.2V614H225.489L217.113 603.8V614H213.273V597.2H216.489L224.841 607.4V597.2H228.681ZM244.008 605.336H247.56V612.152C246.648 612.84 245.592 613.368 244.392 613.736C243.192 614.104 241.984 614.288 240.768 614.288C239.024 614.288 237.456 613.92 236.064 613.184C234.672 612.432 233.576 611.4 232.776 610.088C231.992 608.76 231.6 607.264 231.6 605.6C231.6 603.936 231.992 602.448 232.776 601.136C233.576 599.808 234.68 598.776 236.088 598.04C237.496 597.288 239.08 596.912 240.84 596.912C242.312 596.912 243.648 597.16 244.848 597.656C246.048 598.152 247.056 598.872 247.872 599.816L245.376 602.12C244.176 600.856 242.728 600.224 241.032 600.224C239.96 600.224 239.008 600.448 238.176 600.896C237.344 601.344 236.696 601.976 236.232 602.792C235.768 603.608 235.536 604.544 235.536 605.6C235.536 606.64 235.768 607.568 236.232 608.384C236.696 609.2 237.336 609.84 238.152 610.304C238.984 610.752 239.928 610.976 240.984 610.976C242.104 610.976 243.112 610.736 244.008 610.256V605.336ZM261.876 614L258.636 609.32H258.444H255.06V614H251.172V597.2H258.444C259.932 597.2 261.22 597.448 262.308 597.944C263.412 598.44 264.26 599.144 264.852 600.056C265.444 600.968 265.74 602.048 265.74 603.296C265.74 604.544 265.436 605.624 264.828 606.536C264.236 607.432 263.388 608.12 262.284 608.6L266.052 614H261.876ZM261.804 603.296C261.804 602.352 261.5 601.632 260.892 601.136C260.284 600.624 259.396 600.368 258.228 600.368H255.06V606.224H258.228C259.396 606.224 260.284 605.968 260.892 605.456C261.5 604.944 261.804 604.224 261.804 603.296ZM281.828 610.88V614H268.82V597.2H281.516V600.32H272.684V603.968H280.484V606.992H272.684V610.88H281.828ZM284.922 597.2H292.554C294.378 597.2 295.986 597.552 297.378 598.256C298.786 598.944 299.874 599.92 300.642 601.184C301.426 602.448 301.818 603.92 301.818 605.6C301.818 607.28 301.426 608.752 300.642 610.016C299.874 611.28 298.786 612.264 297.378 612.968C295.986 613.656 294.378 614 292.554 614H284.922V597.2ZM292.362 610.808C294.042 610.808 295.378 610.344 296.37 609.416C297.378 608.472 297.882 607.2 297.882 605.6C297.882 604 297.378 602.736 296.37 601.808C295.378 600.864 294.042 600.392 292.362 600.392H288.81V610.808H292.362ZM304.75 597.2H308.638V614H304.75V597.2ZM325.633 610.88V614H312.625V597.2H325.321V600.32H316.489V603.968H324.289V606.992H316.489V610.88H325.633ZM344.134 597.2V614H340.942L332.566 603.8V614H328.726V597.2H331.942L340.294 607.4V597.2H344.134ZM351.589 600.368H346.213V597.2H360.853V600.368H355.477V614H351.589V600.368ZM368.348 614.288C367.02 614.288 365.732 614.112 364.484 613.76C363.252 613.392 362.26 612.92 361.508 612.344L362.828 609.416C363.548 609.944 364.404 610.368 365.396 610.688C366.388 611.008 367.38 611.168 368.372 611.168C369.476 611.168 370.292 611.008 370.82 610.688C371.348 610.352 371.612 609.912 371.612 609.368C371.612 608.968 371.452 608.64 371.132 608.384C370.828 608.112 370.428 607.896 369.932 607.736C369.452 607.576 368.796 607.4 367.964 607.208C366.684 606.904 365.636 606.6 364.82 606.296C364.004 605.992 363.3 605.504 362.708 604.832C362.132 604.16 361.844 603.264 361.844 602.144C361.844 601.168 362.108 600.288 362.636 599.504C363.164 598.704 363.956 598.072 365.012 597.608C366.084 597.144 367.388 596.912 368.924 596.912C369.996 596.912 371.044 597.04 372.068 597.296C373.092 597.552 373.988 597.92 374.756 598.4L373.556 601.352C372.004 600.472 370.452 600.032 368.9 600.032C367.812 600.032 367.004 600.208 366.476 600.56C365.964 600.912 365.708 601.376 365.708 601.952C365.708 602.528 366.004 602.96 366.596 603.248C367.204 603.52 368.124 603.792 369.356 604.064C370.636 604.368 371.684 604.672 372.5 604.976C373.316 605.28 374.012 605.76 374.588 606.416C375.18 607.072 375.476 607.96 375.476 609.08C375.476 610.04 375.204 610.92 374.66 611.72C374.132 612.504 373.332 613.128 372.26 613.592C371.188 614.056 369.884 614.288 368.348 614.288ZM392.994 608.048V614H389.105V608L382.601 597.2H386.73L391.218 604.664L395.706 597.2H399.522L392.994 608.048ZM408.558 614.288C406.814 614.288 405.238 613.912 403.83 613.16C402.438 612.408 401.342 611.376 400.542 610.064C399.758 608.736 399.366 607.248 399.366 605.6C399.366 603.952 399.758 602.472 400.542 601.16C401.342 599.832 402.438 598.792 403.83 598.04C405.238 597.288 406.814 596.912 408.558 596.912C410.302 596.912 411.87 597.288 413.262 598.04C414.654 598.792 415.75 599.832 416.55 601.16C417.35 602.472 417.75 603.952 417.75 605.6C417.75 607.248 417.35 608.736 416.55 610.064C415.75 611.376 414.654 612.408 413.262 613.16C411.87 613.912 410.302 614.288 408.558 614.288ZM408.558 610.976C409.55 610.976 410.446 610.752 411.246 610.304C412.046 609.84 412.67 609.2 413.118 608.384C413.582 607.568 413.814 606.64 413.814 605.6C413.814 604.56 413.582 603.632 413.118 602.816C412.67 602 412.046 601.368 411.246 600.92C410.446 600.456 409.55 600.224 408.558 600.224C407.566 600.224 406.67 600.456 405.87 600.92C405.07 601.368 404.438 602 403.974 602.816C403.526 603.632 403.302 604.56 403.302 605.6C403.302 606.64 403.526 607.568 403.974 608.384C404.438 609.2 405.07 609.84 405.87 610.304C406.67 610.752 407.566 610.976 408.558 610.976ZM428.136 614.288C425.736 614.288 423.864 613.624 422.52 612.296C421.192 610.968 420.528 609.072 420.528 606.608V597.2H424.416V606.464C424.416 609.472 425.664 610.976 428.16 610.976C429.376 610.976 430.304 610.616 430.944 609.896C431.584 609.16 431.904 608.016 431.904 606.464V597.2H435.744V606.608C435.744 609.072 435.072 610.968 433.728 612.296C432.4 613.624 430.536 614.288 428.136 614.288ZM302.65 626.2V643H298.762V636.112H291.13V643H287.242V626.2H291.13V632.824H298.762V626.2H302.65ZM317.689 639.4H309.889L308.401 643H304.417L311.905 626.2H315.745L323.257 643H319.177L317.689 639.4ZM316.465 636.448L313.801 630.016L311.137 636.448H316.465ZM340.238 626.2L332.966 643H329.126L321.878 626.2H326.078L331.19 638.2L336.374 626.2H340.238ZM354.648 639.88V643H341.64V626.2H354.336V629.32H345.504V632.968H353.304V635.992H345.504V639.88H354.648Z" fill="#FEFCD5"/>
<rect x="561" y="544" width="300" height="120" rx="20" fill="#FD5523"/>
<path d="M633.879 598.226C632.167 598.226 630.615 597.857 629.223 597.121C627.847 596.369 626.759 595.337 625.959 594.025C625.175 592.697 624.783 591.201 624.783 589.537C624.783 587.873 625.175 586.385 625.959 585.073C626.759 583.745 627.847 582.713 629.223 581.977C630.615 581.225 632.175 580.849 633.903 580.849C635.359 580.849 636.671 581.105 637.839 581.617C639.023 582.129 640.015 582.865 640.815 583.826L638.319 586.129C637.183 584.817 635.775 584.161 634.095 584.161C633.055 584.161 632.127 584.393 631.311 584.857C630.495 585.305 629.855 585.937 629.391 586.753C628.943 587.569 628.719 588.497 628.719 589.537C628.719 590.577 628.943 591.505 629.391 592.321C629.855 593.137 630.495 593.777 631.311 594.241C632.127 594.689 633.055 594.913 634.095 594.913C635.775 594.913 637.183 594.249 638.319 592.921L640.815 595.225C640.015 596.201 639.023 596.945 637.839 597.457C636.655 597.969 635.335 598.226 633.879 598.226ZM658.849 581.137V597.938H654.961V591.049H647.329V597.938H643.441V581.137H647.329V587.761H654.961V581.137H658.849ZM670.96 598.226C669.216 598.226 667.64 597.85 666.232 597.097C664.84 596.345 663.744 595.313 662.944 594.001C662.16 592.673 661.768 591.185 661.768 589.537C661.768 587.889 662.16 586.409 662.944 585.097C663.744 583.769 664.84 582.729 666.232 581.977C667.64 581.225 669.216 580.849 670.96 580.849C672.704 580.849 674.272 581.225 675.664 581.977C677.056 582.729 678.152 583.769 678.952 585.097C679.752 586.409 680.152 587.889 680.152 589.537C680.152 591.185 679.752 592.673 678.952 594.001C678.152 595.313 677.056 596.345 675.664 597.097C674.272 597.85 672.704 598.226 670.96 598.226ZM670.96 594.913C671.952 594.913 672.848 594.689 673.648 594.241C674.448 593.777 675.072 593.137 675.52 592.321C675.984 591.505 676.216 590.577 676.216 589.537C676.216 588.497 675.984 587.569 675.52 586.753C675.072 585.937 674.448 585.305 673.648 584.857C672.848 584.393 671.952 584.161 670.96 584.161C669.968 584.161 669.072 584.393 668.272 584.857C667.472 585.305 666.84 585.937 666.376 586.753C665.928 587.569 665.704 588.497 665.704 589.537C665.704 590.577 665.928 591.505 666.376 592.321C666.84 593.137 667.472 593.777 668.272 594.241C669.072 594.689 669.968 594.913 670.96 594.913ZM691.21 598.226C689.466 598.226 687.89 597.85 686.482 597.097C685.09 596.345 683.994 595.313 683.194 594.001C682.41 592.673 682.018 591.185 682.018 589.537C682.018 587.889 682.41 586.409 683.194 585.097C683.994 583.769 685.09 582.729 686.482 581.977C687.89 581.225 689.466 580.849 691.21 580.849C692.954 580.849 694.522 581.225 695.914 581.977C697.306 582.729 698.402 583.769 699.202 585.097C700.002 586.409 700.402 587.889 700.402 589.537C700.402 591.185 700.002 592.673 699.202 594.001C698.402 595.313 697.306 596.345 695.914 597.097C694.522 597.85 692.954 598.226 691.21 598.226ZM691.21 594.913C692.202 594.913 693.098 594.689 693.898 594.241C694.698 593.777 695.322 593.137 695.77 592.321C696.234 591.505 696.466 590.577 696.466 589.537C696.466 588.497 696.234 587.569 695.77 586.753C695.322 585.937 694.698 585.305 693.898 584.857C693.098 584.393 692.202 584.161 691.21 584.161C690.218 584.161 689.322 584.393 688.522 584.857C687.722 585.305 687.09 585.937 686.626 586.753C686.178 587.569 685.954 588.497 685.954 589.537C685.954 590.577 686.178 591.505 686.626 592.321C687.09 593.137 687.722 593.777 688.522 594.241C689.322 594.689 690.218 594.913 691.21 594.913ZM708.844 598.226C707.516 598.226 706.228 598.049 704.98 597.697C703.748 597.329 702.756 596.857 702.004 596.281L703.324 593.353C704.044 593.881 704.9 594.305 705.892 594.625C706.884 594.945 707.876 595.105 708.868 595.105C709.972 595.105 710.788 594.945 711.316 594.625C711.844 594.289 712.108 593.849 712.108 593.305C712.108 592.905 711.948 592.577 711.628 592.321C711.324 592.049 710.924 591.833 710.428 591.673C709.948 591.513 709.292 591.337 708.46 591.145C707.18 590.841 706.132 590.537 705.316 590.233C704.5 589.929 703.796 589.441 703.204 588.769C702.628 588.097 702.34 587.201 702.34 586.081C702.34 585.105 702.604 584.225 703.132 583.441C703.66 582.641 704.452 582.009 705.508 581.545C706.58 581.081 707.884 580.849 709.42 580.849C710.492 580.849 711.54 580.977 712.564 581.233C713.588 581.489 714.484 581.857 715.252 582.337L714.052 585.289C712.5 584.409 710.948 583.969 709.396 583.969C708.308 583.969 707.5 584.145 706.972 584.497C706.46 584.849 706.204 585.313 706.204 585.889C706.204 586.465 706.5 586.897 707.092 587.185C707.7 587.457 708.62 587.729 709.852 588.001C711.132 588.305 712.18 588.609 712.996 588.913C713.812 589.217 714.508 589.697 715.084 590.353C715.676 591.009 715.972 591.897 715.972 593.017C715.972 593.977 715.7 594.857 715.156 595.657C714.628 596.441 713.828 597.065 712.756 597.529C711.684 597.993 710.38 598.226 708.844 598.226ZM731.636 594.817V597.938H718.628V581.137H731.324V584.257H722.492V587.905H730.292V590.929H722.492V594.817H731.636ZM741.527 581.137H749.159C750.983 581.137 752.591 581.489 753.983 582.193C755.391 582.881 756.479 583.857 757.247 585.121C758.031 586.385 758.423 587.857 758.423 589.537C758.423 591.217 758.031 592.689 757.247 593.953C756.479 595.217 755.391 596.201 753.983 596.905C752.591 597.593 750.983 597.938 749.159 597.938H741.527V581.137ZM748.967 594.745C750.647 594.745 751.983 594.281 752.975 593.353C753.983 592.409 754.487 591.137 754.487 589.537C754.487 587.937 753.983 586.673 752.975 585.745C751.983 584.801 750.647 584.329 748.967 584.329H745.415V594.745H748.967ZM761.355 581.137H765.243V597.938H761.355V581.137ZM782.238 594.817V597.938H769.23V581.137H781.926V584.257H773.094V587.905H780.894V590.929H773.094V594.817H782.238ZM788.812 584.305H783.436V581.137H798.076V584.305H792.7V597.938H788.812V584.305ZM635.596 610.137C637.084 610.137 638.372 610.385 639.46 610.881C640.564 611.377 641.412 612.081 642.004 612.993C642.596 613.905 642.892 614.985 642.892 616.233C642.892 617.465 642.596 618.545 642.004 619.473C641.412 620.385 640.564 621.089 639.46 621.585C638.372 622.065 637.084 622.305 635.596 622.305H632.212V626.938H628.324V610.137H635.596ZM635.38 619.137C636.548 619.137 637.436 618.889 638.044 618.393C638.652 617.881 638.956 617.161 638.956 616.233C638.956 615.289 638.652 614.569 638.044 614.073C637.436 613.561 636.548 613.305 635.38 613.305H632.212V619.137H635.38ZM656.371 626.938L653.131 622.257H652.939H649.555V626.938H645.667V610.137H652.939C654.427 610.137 655.715 610.385 656.803 610.881C657.907 611.377 658.755 612.081 659.347 612.993C659.939 613.905 660.235 614.985 660.235 616.233C660.235 617.481 659.931 618.561 659.323 619.473C658.731 620.369 657.883 621.057 656.779 621.537L660.547 626.938H656.371ZM656.299 616.233C656.299 615.289 655.995 614.569 655.387 614.073C654.779 613.561 653.891 613.305 652.723 613.305H649.555V619.161H652.723C653.891 619.161 654.779 618.905 655.387 618.393C655.995 617.881 656.299 617.161 656.299 616.233ZM676.324 623.817V626.938H663.316V610.137H676.012V613.257H667.18V616.905H674.98V619.929H667.18V623.817H676.324ZM683.305 613.257V617.697H691.081V620.817H683.305V626.938H679.417V610.137H692.113V613.257H683.305ZM707.754 623.817V626.938H694.746V610.137H707.442V613.257H698.61V616.905H706.41V619.929H698.61V623.817H707.754ZM721.551 626.938L718.311 622.257H718.119H714.735V626.938H710.847V610.137H718.119C719.607 610.137 720.895 610.385 721.983 610.881C723.087 611.377 723.935 612.081 724.527 612.993C725.119 613.905 725.415 614.985 725.415 616.233C725.415 617.481 725.111 618.561 724.503 619.473C723.911 620.369 723.063 621.057 721.959 621.537L725.727 626.938H721.551ZM721.479 616.233C721.479 615.289 721.175 614.569 720.567 614.073C719.959 613.561 719.071 613.305 717.903 613.305H714.735V619.161H717.903C719.071 619.161 719.959 618.905 720.567 618.393C721.175 617.881 721.479 617.161 721.479 616.233ZM741.504 623.817V626.938H728.496V610.137H741.192V613.257H732.36V616.905H740.16V619.929H732.36V623.817H741.504ZM760.005 610.137V626.938H756.813L748.437 616.737V626.938H744.597V610.137H747.813L756.165 620.337V610.137H760.005ZM772.02 627.226C770.308 627.226 768.756 626.857 767.364 626.121C765.988 625.369 764.9 624.337 764.1 623.025C763.316 621.697 762.924 620.201 762.924 618.537C762.924 616.873 763.316 615.385 764.1 614.073C764.9 612.745 765.988 611.713 767.364 610.977C768.756 610.225 770.316 609.849 772.044 609.849C773.5 609.849 774.812 610.105 775.98 610.617C777.164 611.129 778.156 611.865 778.956 612.826L776.46 615.129C775.324 613.817 773.916 613.161 772.236 613.161C771.196 613.161 770.268 613.393 769.452 613.857C768.636 614.305 767.996 614.937 767.532 615.753C767.084 616.569 766.86 617.497 766.86 618.537C766.86 619.577 767.084 620.505 767.532 621.321C767.996 622.137 768.636 622.777 769.452 623.241C770.268 623.689 771.196 623.913 772.236 623.913C773.916 623.913 775.324 623.249 776.46 621.921L778.956 624.225C778.156 625.201 777.164 625.945 775.98 626.457C774.796 626.969 773.476 627.226 772.02 627.226ZM794.59 623.817V626.938H781.582V610.137H794.278V613.257H785.446V616.905H793.246V619.929H785.446V623.817H794.59Z" fill="#FEFCD5"/>
<rect x="953" y="544" width="300" height="120" rx="20" fill="#FD5523"/>
<path d="M1014.07 610.015H1006.27L1004.79 613.615H1000.8L1008.29 596.815H1012.13L1019.64 613.615H1015.56L1014.07 610.015ZM1012.85 607.063L1010.19 600.631L1007.52 607.063H1012.85ZM1021.39 596.815H1029.02C1030.84 596.815 1032.45 597.167 1033.84 597.871C1035.25 598.559 1036.34 599.535 1037.11 600.799C1037.89 602.063 1038.28 603.535 1038.28 605.215C1038.28 606.895 1037.89 608.367 1037.11 609.631C1036.34 610.895 1035.25 611.879 1033.84 612.583C1032.45 613.271 1030.84 613.615 1029.02 613.615H1021.39V596.815ZM1028.83 610.423C1030.51 610.423 1031.84 609.959 1032.83 609.031C1033.84 608.087 1034.35 606.815 1034.35 605.215C1034.35 603.615 1033.84 602.351 1032.83 601.423C1031.84 600.479 1030.51 600.007 1028.83 600.007H1025.27V610.423H1028.83ZM1041.21 596.815H1048.85C1050.67 596.815 1052.28 597.167 1053.67 597.871C1055.08 598.559 1056.17 599.535 1056.93 600.799C1057.72 602.063 1058.11 603.535 1058.11 605.215C1058.11 606.895 1057.72 608.367 1056.93 609.631C1056.17 610.895 1055.08 611.879 1053.67 612.583C1052.28 613.271 1050.67 613.615 1048.85 613.615H1041.21V596.815ZM1048.65 610.423C1050.33 610.423 1051.67 609.959 1052.66 609.031C1053.67 608.087 1054.17 606.815 1054.17 605.215C1054.17 603.615 1053.67 602.351 1052.66 601.423C1051.67 600.479 1050.33 600.007 1048.65 600.007H1045.1V610.423H1048.65ZM1078.9 610.015H1071.1L1069.61 613.615H1065.63L1073.12 596.815H1076.96L1084.47 613.615H1080.39L1078.9 610.015ZM1077.68 607.063L1075.01 600.631L1072.35 607.063H1077.68ZM1086.21 596.815H1090.1V610.447H1098.53V613.615H1086.21V596.815ZM1100.7 596.815H1104.59V610.447H1113.01V613.615H1100.7V596.815ZM1128.19 610.495V613.615H1115.18V596.815H1127.88V599.935H1119.05V603.583H1126.85V606.607H1119.05V610.495H1128.19ZM1141.99 613.615L1138.75 608.935H1138.56H1135.17V613.615H1131.28V596.815H1138.56C1140.04 596.815 1141.33 597.063 1142.42 597.559C1143.52 598.055 1144.37 598.759 1144.96 599.671C1145.56 600.583 1145.85 601.663 1145.85 602.911C1145.85 604.159 1145.55 605.239 1144.94 606.151C1144.35 607.047 1143.5 607.735 1142.4 608.215L1146.16 613.615H1141.99ZM1141.92 602.911C1141.92 601.967 1141.61 601.247 1141 600.751C1140.4 600.239 1139.51 599.983 1138.34 599.983H1135.17V605.839H1138.34C1139.51 605.839 1140.4 605.583 1141 605.071C1141.61 604.559 1141.92 603.839 1141.92 602.911ZM1160.28 604.951H1163.84V611.767C1162.92 612.455 1161.87 612.983 1160.67 613.351C1159.47 613.719 1158.26 613.903 1157.04 613.903C1155.3 613.903 1153.73 613.535 1152.34 612.799C1150.95 612.047 1149.85 611.015 1149.05 609.703C1148.27 608.375 1147.88 606.879 1147.88 605.215C1147.88 603.551 1148.27 602.063 1149.05 600.751C1149.85 599.423 1150.96 598.391 1152.36 597.655C1153.77 596.903 1155.36 596.527 1157.12 596.527C1158.59 596.527 1159.92 596.775 1161.12 597.271C1162.32 597.767 1163.33 598.487 1164.15 599.431L1161.65 601.735C1160.45 600.471 1159 599.839 1157.31 599.839C1156.24 599.839 1155.28 600.063 1154.45 600.511C1153.62 600.959 1152.97 601.591 1152.51 602.407C1152.04 603.223 1151.81 604.159 1151.81 605.215C1151.81 606.255 1152.04 607.183 1152.51 607.999C1152.97 608.815 1153.61 609.455 1154.43 609.919C1155.26 610.367 1156.2 610.591 1157.26 610.591C1158.38 610.591 1159.39 610.351 1160.28 609.871V604.951ZM1167.45 596.815H1171.34V613.615H1167.45V596.815ZM1188.33 610.495V613.615H1175.32V596.815H1188.02V599.935H1179.19V603.583H1186.99V606.607H1179.19V610.495H1188.33ZM1196.94 613.903C1195.62 613.903 1194.33 613.727 1193.08 613.375C1191.85 613.007 1190.86 612.535 1190.1 611.959L1191.42 609.031C1192.14 609.559 1193 609.983 1193.99 610.303C1194.98 610.623 1195.98 610.783 1196.97 610.783C1198.07 610.783 1198.89 610.623 1199.42 610.303C1199.94 609.967 1200.21 609.527 1200.21 608.983C1200.21 608.583 1200.05 608.255 1199.73 607.999C1199.42 607.727 1199.02 607.511 1198.53 607.351C1198.05 607.191 1197.39 607.015 1196.56 606.823C1195.28 606.519 1194.23 606.215 1193.42 605.911C1192.6 605.607 1191.9 605.119 1191.3 604.447C1190.73 603.775 1190.44 602.879 1190.44 601.759C1190.44 600.783 1190.7 599.903 1191.23 599.119C1191.76 598.319 1192.55 597.687 1193.61 597.223C1194.68 596.759 1195.98 596.527 1197.52 596.527C1198.59 596.527 1199.64 596.655 1200.66 596.911C1201.69 597.167 1202.58 597.535 1203.35 598.015L1202.15 600.967C1200.6 600.087 1199.05 599.647 1197.5 599.647C1196.41 599.647 1195.6 599.823 1195.07 600.175C1194.56 600.527 1194.3 600.991 1194.3 601.567C1194.3 602.143 1194.6 602.575 1195.19 602.863C1195.8 603.135 1196.72 603.407 1197.95 603.679C1199.23 603.983 1200.28 604.287 1201.1 604.591C1201.91 604.895 1202.61 605.375 1203.18 606.031C1203.78 606.687 1204.07 607.575 1204.07 608.695C1204.07 609.655 1203.8 610.535 1203.26 611.335C1202.73 612.119 1201.93 612.743 1200.86 613.207C1199.78 613.671 1198.48 613.903 1196.94 613.903Z" fill="#FEFCD5"/>
<rect x="953" y="765" width="300" height="120" rx="20" fill="#FD5523"/>
<path d="M1041.04 818.253C1039.33 818.253 1037.78 817.885 1036.39 817.149C1035.01 816.397 1033.92 815.365 1033.12 814.053C1032.34 812.725 1031.95 811.229 1031.95 809.565C1031.95 807.901 1032.34 806.413 1033.12 805.101C1033.92 803.773 1035.01 802.741 1036.39 802.005C1037.78 801.253 1039.34 800.877 1041.07 800.877C1042.52 800.877 1043.84 801.133 1045 801.645C1046.19 802.157 1047.18 802.893 1047.98 803.853L1045.48 806.157C1044.35 804.845 1042.94 804.189 1041.26 804.189C1040.22 804.189 1039.29 804.421 1038.48 804.885C1037.66 805.333 1037.02 805.965 1036.56 806.781C1036.11 807.597 1035.88 808.525 1035.88 809.565C1035.88 810.605 1036.11 811.533 1036.56 812.349C1037.02 813.165 1037.66 813.805 1038.48 814.269C1039.29 814.717 1040.22 814.941 1041.26 814.941C1042.94 814.941 1044.35 814.277 1045.48 812.949L1047.98 815.253C1047.18 816.229 1046.19 816.973 1045 817.485C1043.82 817.997 1042.5 818.253 1041.04 818.253ZM1057.93 818.253C1055.53 818.253 1053.66 817.589 1052.31 816.261C1050.98 814.933 1050.32 813.037 1050.32 810.573V801.165H1054.21V810.429C1054.21 813.437 1055.46 814.941 1057.95 814.941C1059.17 814.941 1060.1 814.581 1060.74 813.861C1061.38 813.125 1061.7 811.981 1061.7 810.429V801.165H1065.54V810.573C1065.54 813.037 1064.86 814.933 1063.52 816.261C1062.19 817.589 1060.33 818.253 1057.93 818.253ZM1074.9 818.253C1073.57 818.253 1072.28 818.077 1071.03 817.725C1069.8 817.357 1068.81 816.885 1068.06 816.309L1069.38 813.381C1070.1 813.909 1070.95 814.333 1071.95 814.653C1072.94 814.973 1073.93 815.133 1074.92 815.133C1076.03 815.133 1076.84 814.973 1077.37 814.653C1077.9 814.317 1078.16 813.877 1078.16 813.333C1078.16 812.933 1078 812.605 1077.68 812.349C1077.38 812.077 1076.98 811.861 1076.48 811.701C1076 811.541 1075.35 811.365 1074.51 811.173C1073.23 810.869 1072.19 810.565 1071.37 810.261C1070.55 809.957 1069.85 809.469 1069.26 808.797C1068.68 808.125 1068.39 807.229 1068.39 806.109C1068.39 805.133 1068.66 804.253 1069.19 803.469C1069.71 802.669 1070.51 802.037 1071.56 801.573C1072.63 801.109 1073.94 800.877 1075.47 800.877C1076.55 800.877 1077.59 801.005 1078.62 801.261C1079.64 801.517 1080.54 801.885 1081.31 802.365L1080.11 805.317C1078.55 804.437 1077 803.997 1075.45 803.997C1074.36 803.997 1073.55 804.173 1073.03 804.525C1072.51 804.877 1072.26 805.341 1072.26 805.917C1072.26 806.493 1072.55 806.925 1073.15 807.213C1073.75 807.485 1074.67 807.757 1075.91 808.029C1077.19 808.333 1078.23 808.637 1079.05 808.941C1079.87 809.245 1080.56 809.725 1081.14 810.381C1081.73 811.037 1082.03 811.925 1082.03 813.045C1082.03 814.005 1081.75 814.885 1081.21 815.685C1080.68 816.469 1079.88 817.093 1078.81 817.557C1077.74 818.021 1076.43 818.253 1074.9 818.253ZM1087.93 804.333H1082.55V801.165H1097.19V804.333H1091.82V817.965H1087.93V804.333ZM1107.19 818.253C1105.44 818.253 1103.87 817.877 1102.46 817.125C1101.07 816.373 1099.97 815.341 1099.17 814.029C1098.39 812.701 1097.99 811.213 1097.99 809.565C1097.99 807.917 1098.39 806.437 1099.17 805.125C1099.97 803.797 1101.07 802.757 1102.46 802.005C1103.87 801.253 1105.44 800.877 1107.19 800.877C1108.93 800.877 1110.5 801.253 1111.89 802.005C1113.28 802.757 1114.38 803.797 1115.18 805.125C1115.98 806.437 1116.38 807.917 1116.38 809.565C1116.38 811.213 1115.98 812.701 1115.18 814.029C1114.38 815.341 1113.28 816.373 1111.89 817.125C1110.5 817.877 1108.93 818.253 1107.19 818.253ZM1107.19 814.941C1108.18 814.941 1109.07 814.717 1109.87 814.269C1110.67 813.805 1111.3 813.165 1111.75 812.349C1112.21 811.533 1112.44 810.605 1112.44 809.565C1112.44 808.525 1112.21 807.597 1111.75 806.781C1111.3 805.965 1110.67 805.333 1109.87 804.885C1109.07 804.421 1108.18 804.189 1107.19 804.189C1106.19 804.189 1105.3 804.421 1104.5 804.885C1103.7 805.333 1103.07 805.965 1102.6 806.781C1102.15 807.597 1101.93 808.525 1101.93 809.565C1101.93 810.605 1102.15 811.533 1102.6 812.349C1103.07 813.165 1103.7 813.805 1104.5 814.269C1105.3 814.717 1106.19 814.941 1107.19 814.941ZM1134.59 817.965L1134.56 807.885L1129.62 816.189H1127.87L1122.95 808.101V817.965H1119.3V801.165H1122.52L1128.8 811.605L1135 801.165H1138.19L1138.24 817.965H1134.59ZM1142.22 801.165H1146.11V817.965H1142.22V801.165ZM1163.71 814.797V817.965H1149.02V815.445L1158.23 804.333H1149.21V801.165H1163.35V803.685L1154.15 814.797H1163.71ZM1179.21 814.845V817.965H1166.2V801.165H1178.89V804.285H1170.06V807.933H1177.86V810.957H1170.06V814.845H1179.21ZM1048.74 846.965L1048.71 836.885L1043.77 845.189H1042.02L1037.1 837.101V846.965H1033.45V830.165H1036.66L1042.95 840.605L1049.14 830.165H1052.34L1052.38 846.965H1048.74ZM1069.38 843.845V846.965H1056.37V830.165H1069.07V833.285H1060.23V836.933H1068.03V839.957H1060.23V843.845H1069.38ZM1083.54 843.365H1075.74L1074.25 846.965H1070.26L1077.75 830.165H1081.59L1089.1 846.965H1085.02L1083.54 843.365ZM1082.31 840.413L1079.65 833.981L1076.98 840.413H1082.31ZM1090.85 830.165H1094.74V843.797H1103.16V846.965H1090.85V830.165ZM1119.4 830.165C1120.89 830.165 1122.18 830.413 1123.26 830.909C1124.37 831.405 1125.22 832.109 1125.81 833.021C1126.4 833.933 1126.7 835.013 1126.7 836.261C1126.7 837.493 1126.4 838.573 1125.81 839.501C1125.22 840.413 1124.37 841.117 1123.26 841.613C1122.18 842.093 1120.89 842.333 1119.4 842.333H1116.02V846.965H1112.13V830.165H1119.4ZM1119.18 839.165C1120.35 839.165 1121.24 838.917 1121.85 838.421C1122.46 837.909 1122.76 837.189 1122.76 836.261C1122.76 835.317 1122.46 834.597 1121.85 834.101C1121.24 833.589 1120.35 833.333 1119.18 833.333H1116.02V839.165H1119.18ZM1129.47 830.165H1133.36V843.797H1141.78V846.965H1129.47V830.165ZM1155.16 843.365H1147.36L1145.87 846.965H1141.89L1149.38 830.165H1153.22L1160.73 846.965H1156.65L1155.16 843.365ZM1153.94 840.413L1151.27 833.981L1148.61 840.413H1153.94ZM1177.88 830.165V846.965H1174.69L1166.31 836.765V846.965H1162.47V830.165H1165.69L1174.04 840.365V830.165H1177.88Z" fill="#FEFCD5"/>
<rect x="236" y="1147" width="300" height="120" rx="20" fill="#FD5523"/>
<path d="M322.487 1198.16L315.215 1214.96H311.375L304.127 1198.16H308.327L313.439 1210.16L318.623 1198.16H322.487ZM323.89 1198.16H327.778V1214.96H323.89V1198.16ZM344.773 1211.84V1214.96H331.765V1198.16H344.461V1201.28H335.629V1204.93H343.429V1207.96H335.629V1211.84H344.773ZM373.024 1198.16L367.528 1214.96H363.352L359.656 1203.59L355.84 1214.96H351.688L346.168 1198.16H350.2L353.992 1209.97L357.952 1198.16H361.552L365.392 1210.07L369.304 1198.16H373.024ZM393.047 1214.96L389.807 1210.28H389.615H386.231V1214.96H382.343V1198.16H389.615C391.103 1198.16 392.391 1198.41 393.479 1198.91C394.583 1199.4 395.431 1200.11 396.023 1201.02C396.615 1201.93 396.911 1203.01 396.911 1204.26C396.911 1205.51 396.607 1206.59 395.999 1207.5C395.407 1208.4 394.559 1209.08 393.455 1209.56L397.223 1214.96H393.047ZM392.975 1204.26C392.975 1203.32 392.671 1202.6 392.063 1202.1C391.455 1201.59 390.567 1201.33 389.399 1201.33H386.231V1207.19H389.399C390.567 1207.19 391.455 1206.93 392.063 1206.42C392.671 1205.91 392.975 1205.19 392.975 1204.26ZM413 1211.84V1214.96H399.992V1198.16H412.688V1201.28H403.856V1204.93H411.656V1207.96H403.856V1211.84H413ZM424.086 1215.25C422.374 1215.25 420.822 1214.88 419.43 1214.15C418.054 1213.4 416.966 1212.36 416.166 1211.05C415.382 1209.72 414.99 1208.23 414.99 1206.56C414.99 1204.9 415.382 1203.41 416.166 1202.1C416.966 1200.77 418.054 1199.74 419.43 1199C420.822 1198.25 422.382 1197.88 424.11 1197.88C425.566 1197.88 426.878 1198.13 428.046 1198.64C429.23 1199.16 430.222 1199.89 431.022 1200.85L428.526 1203.16C427.39 1201.84 425.982 1201.19 424.302 1201.19C423.262 1201.19 422.334 1201.42 421.518 1201.88C420.702 1202.33 420.062 1202.96 419.598 1203.78C419.15 1204.6 418.926 1205.52 418.926 1206.56C418.926 1207.6 419.15 1208.53 419.598 1209.35C420.062 1210.16 420.702 1210.8 421.518 1211.27C422.334 1211.72 423.262 1211.94 424.302 1211.94C425.982 1211.94 427.39 1211.28 428.526 1209.95L431.022 1212.25C430.222 1213.23 429.23 1213.97 428.046 1214.48C426.862 1215 425.542 1215.25 424.086 1215.25ZM433.648 1198.16H437.536V1214.96H433.648V1198.16ZM448.795 1198.16C450.283 1198.16 451.571 1198.41 452.659 1198.91C453.763 1199.4 454.611 1200.11 455.203 1201.02C455.795 1201.93 456.091 1203.01 456.091 1204.26C456.091 1205.49 455.795 1206.57 455.203 1207.5C454.611 1208.41 453.763 1209.12 452.659 1209.61C451.571 1210.09 450.283 1210.33 448.795 1210.33H445.411V1214.96H441.523V1198.16H448.795ZM448.579 1207.16C449.747 1207.16 450.635 1206.92 451.243 1206.42C451.851 1205.91 452.155 1205.19 452.155 1204.26C452.155 1203.32 451.851 1202.6 451.243 1202.1C450.635 1201.59 449.747 1201.33 448.579 1201.33H445.411V1207.16H448.579ZM471.875 1211.84V1214.96H458.867V1198.16H471.563V1201.28H462.731V1204.93H470.531V1207.96H462.731V1211.84H471.875Z" fill="#FEFCD5"/>
<rect x="408" y="1487" width="300" height="120" rx="20" fill="#FD5523"/>
<path d="M544.198 1523.16L536.926 1539.96H533.086L525.838 1523.16H530.038L535.15 1535.16L540.334 1523.16H544.198ZM545.601 1523.16H549.489V1539.96H545.601V1523.16ZM566.484 1536.84V1539.96H553.476V1523.16H566.172V1526.28H557.34V1529.93H565.14V1532.96H557.34V1536.84H566.484ZM594.735 1523.16L589.239 1539.96H585.063L581.367 1528.59L577.551 1539.96H573.399L567.879 1523.16H571.911L575.703 1534.97L579.663 1523.16H583.263L587.103 1535.07L591.015 1523.16H594.735ZM476.285 1552.16H480.173V1568.96H476.285V1552.16ZM499.568 1552.16V1568.96H496.376L488 1558.76V1568.96H484.16V1552.16H487.376L495.728 1562.36V1552.16H499.568ZM514.894 1560.3H518.446V1567.12C517.534 1567.8 516.478 1568.33 515.278 1568.7C514.078 1569.07 512.87 1569.25 511.654 1569.25C509.91 1569.25 508.342 1568.88 506.95 1568.15C505.558 1567.4 504.462 1566.36 503.662 1565.05C502.878 1563.72 502.486 1562.23 502.486 1560.56C502.486 1558.9 502.878 1557.41 503.662 1556.1C504.462 1554.77 505.566 1553.74 506.974 1553C508.382 1552.25 509.966 1551.88 511.726 1551.88C513.198 1551.88 514.534 1552.12 515.734 1552.62C516.934 1553.12 517.942 1553.84 518.758 1554.78L516.262 1557.08C515.062 1555.82 513.614 1555.19 511.918 1555.19C510.846 1555.19 509.894 1555.41 509.062 1555.86C508.23 1556.31 507.582 1556.94 507.118 1557.76C506.654 1558.57 506.422 1559.51 506.422 1560.56C506.422 1561.6 506.654 1562.53 507.118 1563.35C507.582 1564.16 508.222 1564.8 509.038 1565.27C509.87 1565.72 510.814 1565.94 511.87 1565.94C512.99 1565.94 513.998 1565.7 514.894 1565.22V1560.3ZM532.762 1568.96L529.522 1564.28H529.33H525.946V1568.96H522.058V1552.16H529.33C530.818 1552.16 532.106 1552.41 533.194 1552.91C534.298 1553.4 535.146 1554.11 535.738 1555.02C536.33 1555.93 536.626 1557.01 536.626 1558.26C536.626 1559.51 536.322 1560.59 535.714 1561.5C535.122 1562.4 534.274 1563.08 533.17 1563.56L536.938 1568.96H532.762ZM532.69 1558.26C532.69 1557.32 532.386 1556.6 531.778 1556.1C531.17 1555.59 530.282 1555.33 529.114 1555.33H525.946V1561.19H529.114C530.282 1561.19 531.17 1560.93 531.778 1560.42C532.386 1559.91 532.69 1559.19 532.69 1558.26ZM552.715 1565.84V1568.96H539.707V1552.16H552.403V1555.28H543.571V1558.93H551.371V1561.96H543.571V1565.84H552.715ZM555.808 1552.16H563.44C565.264 1552.16 566.872 1552.52 568.264 1553.22C569.672 1553.91 570.76 1554.88 571.528 1556.15C572.312 1557.41 572.704 1558.88 572.704 1560.56C572.704 1562.24 572.312 1563.72 571.528 1564.98C570.76 1566.24 569.672 1567.23 568.264 1567.93C566.872 1568.62 565.264 1568.96 563.44 1568.96H555.808V1552.16ZM563.248 1565.77C564.928 1565.77 566.264 1565.31 567.256 1564.38C568.264 1563.44 568.768 1562.16 568.768 1560.56C568.768 1558.96 568.264 1557.7 567.256 1556.77C566.264 1555.83 564.928 1555.36 563.248 1555.36H559.696V1565.77H563.248ZM575.636 1552.16H579.524V1568.96H575.636V1552.16ZM596.519 1565.84V1568.96H583.511V1552.16H596.207V1555.28H587.375V1558.93H595.175V1561.96H587.375V1565.84H596.519ZM615.021 1552.16V1568.96H611.829L603.453 1558.76V1568.96H599.613V1552.16H602.829L611.181 1562.36V1552.16H615.021ZM622.476 1555.33H617.1V1552.16H631.74V1555.33H626.364V1568.96H622.476V1555.33ZM639.234 1569.25C637.906 1569.25 636.618 1569.08 635.37 1568.72C634.138 1568.36 633.146 1567.88 632.394 1567.31L633.714 1564.38C634.434 1564.91 635.29 1565.33 636.282 1565.65C637.274 1565.97 638.266 1566.13 639.258 1566.13C640.362 1566.13 641.178 1565.97 641.706 1565.65C642.234 1565.32 642.498 1564.88 642.498 1564.33C642.498 1563.93 642.338 1563.6 642.018 1563.35C641.714 1563.08 641.314 1562.86 640.818 1562.7C640.338 1562.54 639.682 1562.36 638.85 1562.17C637.57 1561.87 636.522 1561.56 635.706 1561.26C634.89 1560.96 634.186 1560.47 633.594 1559.8C633.018 1559.12 632.73 1558.23 632.73 1557.11C632.73 1556.13 632.994 1555.25 633.522 1554.47C634.05 1553.67 634.842 1553.04 635.898 1552.57C636.97 1552.11 638.274 1551.88 639.81 1551.88C640.882 1551.88 641.93 1552 642.954 1552.26C643.978 1552.52 644.874 1552.88 645.642 1553.36L644.442 1556.32C642.89 1555.44 641.338 1555 639.786 1555C638.698 1555 637.89 1555.17 637.362 1555.52C636.85 1555.88 636.594 1556.34 636.594 1556.92C636.594 1557.49 636.89 1557.92 637.482 1558.21C638.09 1558.48 639.01 1558.76 640.242 1559.03C641.522 1559.33 642.57 1559.64 643.386 1559.94C644.202 1560.24 644.898 1560.72 645.474 1561.38C646.066 1562.04 646.362 1562.92 646.362 1564.04C646.362 1565 646.09 1565.88 645.546 1566.68C645.018 1567.47 644.218 1568.09 643.146 1568.56C642.074 1569.02 640.77 1569.25 639.234 1569.25Z" fill="#FEFCD5"/>
<rect x="89" y="1486" width="300" height="120" rx="20" fill="#FD5523"/>
<path d="M225.198 1522.16L217.926 1538.96H214.086L206.838 1522.16H211.038L216.15 1534.16L221.334 1522.16H225.198ZM226.601 1522.16H230.489V1538.96H226.601V1522.16ZM247.484 1535.84V1538.96H234.476V1522.16H247.172V1525.28H238.34V1528.93H246.14V1531.96H238.34V1535.84H247.484ZM275.735 1522.16L270.239 1538.96H266.063L262.367 1527.59L258.551 1538.96H254.399L248.879 1522.16H252.911L256.703 1533.97L260.663 1522.16H264.263L268.103 1534.07L272.015 1522.16H275.735ZM165.406 1551.16H173.038C174.862 1551.16 176.47 1551.52 177.862 1552.22C179.27 1552.91 180.358 1553.88 181.126 1555.15C181.91 1556.41 182.302 1557.88 182.302 1559.56C182.302 1561.24 181.91 1562.72 181.126 1563.98C180.358 1565.24 179.27 1566.23 177.862 1566.93C176.47 1567.62 174.862 1567.96 173.038 1567.96H165.406V1551.16ZM172.846 1564.77C174.526 1564.77 175.862 1564.31 176.854 1563.38C177.862 1562.44 178.366 1561.16 178.366 1559.56C178.366 1557.96 177.862 1556.7 176.854 1555.77C175.862 1554.83 174.526 1554.36 172.846 1554.36H169.294V1564.77H172.846ZM185.234 1551.16H189.122V1567.96H185.234V1551.16ZM203.813 1567.96L200.573 1563.28H200.381H196.997V1567.96H193.109V1551.16H200.381C201.869 1551.16 203.157 1551.41 204.245 1551.91C205.349 1552.4 206.197 1553.11 206.789 1554.02C207.381 1554.93 207.677 1556.01 207.677 1557.26C207.677 1558.51 207.373 1559.59 206.765 1560.5C206.173 1561.4 205.325 1562.08 204.221 1562.56L207.989 1567.96H203.813ZM203.741 1557.26C203.741 1556.32 203.437 1555.6 202.829 1555.1C202.221 1554.59 201.333 1554.33 200.165 1554.33H196.997V1560.19H200.165C201.333 1560.19 202.221 1559.93 202.829 1559.42C203.437 1558.91 203.741 1558.19 203.741 1557.26ZM223.765 1564.84V1567.96H210.757V1551.16H223.453V1554.28H214.621V1557.93H222.421V1560.96H214.621V1564.84H223.765ZM234.852 1568.25C233.14 1568.25 231.588 1567.88 230.196 1567.15C228.82 1566.4 227.732 1565.36 226.932 1564.05C226.148 1562.72 225.756 1561.23 225.756 1559.56C225.756 1557.9 226.148 1556.41 226.932 1555.1C227.732 1553.77 228.82 1552.74 230.196 1552C231.588 1551.25 233.148 1550.88 234.876 1550.88C236.332 1550.88 237.644 1551.13 238.812 1551.64C239.996 1552.16 240.988 1552.89 241.788 1553.85L239.292 1556.16C238.156 1554.84 236.748 1554.19 235.068 1554.19C234.028 1554.19 233.1 1554.42 232.284 1554.88C231.468 1555.33 230.828 1555.96 230.364 1556.78C229.916 1557.6 229.692 1558.52 229.692 1559.56C229.692 1560.6 229.916 1561.53 230.364 1562.35C230.828 1563.16 231.468 1563.8 232.284 1564.27C233.1 1564.72 234.028 1564.94 235.068 1564.94C236.748 1564.94 238.156 1564.28 239.292 1562.95L241.788 1565.25C240.988 1566.23 239.996 1566.97 238.812 1567.48C237.628 1568 236.308 1568.25 234.852 1568.25ZM247.73 1554.33H242.353V1551.16H256.994V1554.33H251.618V1567.96H247.73V1554.33ZM259.085 1551.16H262.973V1567.96H259.085V1551.16ZM275.096 1568.25C273.352 1568.25 271.776 1567.88 270.368 1567.12C268.976 1566.37 267.88 1565.34 267.08 1564.03C266.296 1562.7 265.904 1561.21 265.904 1559.56C265.904 1557.92 266.296 1556.44 267.08 1555.12C267.88 1553.8 268.976 1552.76 270.368 1552C271.776 1551.25 273.352 1550.88 275.096 1550.88C276.84 1550.88 278.408 1551.25 279.8 1552C281.192 1552.76 282.288 1553.8 283.088 1555.12C283.888 1556.44 284.288 1557.92 284.288 1559.56C284.288 1561.21 283.888 1562.7 283.088 1564.03C282.288 1565.34 281.192 1566.37 279.8 1567.12C278.408 1567.88 276.84 1568.25 275.096 1568.25ZM275.096 1564.94C276.088 1564.94 276.984 1564.72 277.784 1564.27C278.584 1563.8 279.208 1563.16 279.656 1562.35C280.12 1561.53 280.352 1560.6 280.352 1559.56C280.352 1558.52 280.12 1557.6 279.656 1556.78C279.208 1555.96 278.584 1555.33 277.784 1554.88C276.984 1554.42 276.088 1554.19 275.096 1554.19C274.104 1554.19 273.208 1554.42 272.408 1554.88C271.608 1555.33 270.976 1555.96 270.512 1556.78C270.064 1557.6 269.84 1558.52 269.84 1559.56C269.84 1560.6 270.064 1561.53 270.512 1562.35C270.976 1563.16 271.608 1563.8 272.408 1564.27C273.208 1564.72 274.104 1564.94 275.096 1564.94ZM302.618 1551.16V1567.96H299.426L291.05 1557.76V1567.96H287.21V1551.16H290.426L298.778 1561.36V1551.16H302.618ZM312.113 1568.25C310.785 1568.25 309.497 1568.08 308.249 1567.72C307.017 1567.36 306.025 1566.88 305.273 1566.31L306.593 1563.38C307.313 1563.91 308.169 1564.33 309.161 1564.65C310.153 1564.97 311.145 1565.13 312.137 1565.13C313.241 1565.13 314.057 1564.97 314.585 1564.65C315.113 1564.32 315.377 1563.88 315.377 1563.33C315.377 1562.93 315.217 1562.6 314.897 1562.35C314.593 1562.08 314.193 1561.86 313.697 1561.7C313.217 1561.54 312.561 1561.36 311.729 1561.17C310.449 1560.87 309.401 1560.56 308.585 1560.26C307.769 1559.96 307.065 1559.47 306.473 1558.8C305.897 1558.12 305.609 1557.23 305.609 1556.11C305.609 1555.13 305.873 1554.25 306.401 1553.47C306.929 1552.67 307.721 1552.04 308.777 1551.57C309.849 1551.11 311.153 1550.88 312.689 1550.88C313.761 1550.88 314.809 1551 315.833 1551.26C316.857 1551.52 317.753 1551.88 318.521 1552.36L317.321 1555.32C315.769 1554.44 314.217 1554 312.665 1554C311.577 1554 310.769 1554.17 310.241 1554.52C309.729 1554.88 309.473 1555.34 309.473 1555.92C309.473 1556.49 309.769 1556.92 310.361 1557.21C310.969 1557.48 311.889 1557.76 313.121 1558.03C314.401 1558.33 315.449 1558.64 316.265 1558.94C317.081 1559.24 317.777 1559.72 318.353 1560.38C318.945 1561.04 319.241 1561.92 319.241 1563.04C319.241 1564 318.969 1564.88 318.425 1565.68C317.897 1566.47 317.097 1567.09 316.025 1567.56C314.953 1568.02 313.649 1568.25 312.113 1568.25Z" fill="#FEFCD5"/>
<rect x="581" y="1147" width="300" height="120" rx="20" fill="#FD5523"/>
<path d="M693.728 1195.4H685.928L684.44 1199H680.456L687.944 1182.2H691.784L699.296 1199H695.216L693.728 1195.4ZM692.504 1192.45L689.84 1186.02L687.176 1192.45H692.504ZM701.039 1182.2H708.671C710.495 1182.2 712.103 1182.55 713.495 1183.26C714.903 1183.94 715.991 1184.92 716.759 1186.18C717.543 1187.45 717.935 1188.92 717.935 1190.6C717.935 1192.28 717.543 1193.75 716.759 1195.02C715.991 1196.28 714.903 1197.26 713.495 1197.97C712.103 1198.66 710.495 1199 708.671 1199H701.039V1182.2ZM708.479 1195.81C710.159 1195.81 711.495 1195.34 712.487 1194.42C713.495 1193.47 713.999 1192.2 713.999 1190.6C713.999 1189 713.495 1187.74 712.487 1186.81C711.495 1185.86 710.159 1185.39 708.479 1185.39H704.927V1195.81H708.479ZM723.611 1199.29C722.475 1199.29 721.427 1199.08 720.467 1198.66C719.523 1198.23 718.747 1197.62 718.139 1196.84L720.299 1194.25C721.211 1195.48 722.251 1196.1 723.419 1196.1C725.003 1196.1 725.795 1195.17 725.795 1193.31V1185.32H719.891V1182.2H729.659V1193.1C729.659 1195.16 729.147 1196.71 728.123 1197.75C727.099 1198.78 725.595 1199.29 723.611 1199.29ZM740.964 1199.29C738.564 1199.29 736.692 1198.62 735.348 1197.3C734.02 1195.97 733.356 1194.07 733.356 1191.61V1182.2H737.244V1191.46C737.244 1194.47 738.492 1195.98 740.988 1195.98C742.204 1195.98 743.132 1195.62 743.772 1194.9C744.412 1194.16 744.732 1193.02 744.732 1191.46V1182.2H748.572V1191.61C748.572 1194.07 747.9 1195.97 746.556 1197.3C745.228 1198.62 743.364 1199.29 740.964 1199.29ZM757.934 1199.29C756.606 1199.29 755.318 1199.11 754.07 1198.76C752.838 1198.39 751.846 1197.92 751.094 1197.34L752.414 1194.42C753.134 1194.94 753.99 1195.37 754.982 1195.69C755.974 1196.01 756.966 1196.17 757.958 1196.17C759.062 1196.17 759.878 1196.01 760.406 1195.69C760.934 1195.35 761.198 1194.91 761.198 1194.37C761.198 1193.97 761.038 1193.64 760.718 1193.38C760.414 1193.11 760.014 1192.9 759.518 1192.74C759.038 1192.58 758.382 1192.4 757.55 1192.21C756.27 1191.9 755.222 1191.6 754.406 1191.3C753.59 1190.99 752.886 1190.5 752.294 1189.83C751.718 1189.16 751.43 1188.26 751.43 1187.14C751.43 1186.17 751.694 1185.29 752.222 1184.5C752.75 1183.7 753.542 1183.07 754.598 1182.61C755.67 1182.14 756.974 1181.91 758.51 1181.91C759.582 1181.91 760.63 1182.04 761.654 1182.3C762.678 1182.55 763.574 1182.92 764.342 1183.4L763.142 1186.35C761.59 1185.47 760.038 1185.03 758.486 1185.03C757.398 1185.03 756.59 1185.21 756.062 1185.56C755.55 1185.91 755.294 1186.38 755.294 1186.95C755.294 1187.53 755.59 1187.96 756.182 1188.25C756.79 1188.52 757.71 1188.79 758.942 1189.06C760.222 1189.37 761.27 1189.67 762.086 1189.98C762.902 1190.28 763.598 1190.76 764.174 1191.42C764.766 1192.07 765.062 1192.96 765.062 1194.08C765.062 1195.04 764.79 1195.92 764.246 1196.72C763.718 1197.5 762.918 1198.13 761.846 1198.59C760.774 1199.06 759.47 1199.29 757.934 1199.29ZM770.964 1185.37H765.588V1182.2H780.228V1185.37H774.852V1199H770.964V1185.37ZM647.432 1211.2C648.92 1211.2 650.208 1211.45 651.296 1211.94C652.4 1212.44 653.248 1213.14 653.84 1214.06C654.432 1214.97 654.728 1216.05 654.728 1217.3C654.728 1218.53 654.432 1219.61 653.84 1220.54C653.248 1221.45 652.4 1222.15 651.296 1222.65C650.208 1223.13 648.92 1223.37 647.432 1223.37H644.048V1228H640.16V1211.2H647.432ZM647.216 1220.2C648.384 1220.2 649.272 1219.95 649.88 1219.46C650.488 1218.94 650.792 1218.22 650.792 1217.3C650.792 1216.35 650.488 1215.63 649.88 1215.14C649.272 1214.62 648.384 1214.37 647.216 1214.37H644.048V1220.2H647.216ZM668.208 1228L664.968 1223.32H664.776H661.392V1228H657.504V1211.2H664.776C666.264 1211.2 667.552 1211.45 668.64 1211.94C669.744 1212.44 670.592 1213.14 671.184 1214.06C671.776 1214.97 672.072 1216.05 672.072 1217.3C672.072 1218.54 671.768 1219.62 671.16 1220.54C670.568 1221.43 669.72 1222.12 668.616 1222.6L672.384 1228H668.208ZM668.136 1217.3C668.136 1216.35 667.832 1215.63 667.224 1215.14C666.616 1214.62 665.728 1214.37 664.56 1214.37H661.392V1220.22H664.56C665.728 1220.22 666.616 1219.97 667.224 1219.46C667.832 1218.94 668.136 1218.22 668.136 1217.3ZM688.16 1224.88V1228H675.152V1211.2H687.848V1214.32H679.016V1217.97H686.816V1220.99H679.016V1224.88H688.16ZM695.142 1214.32V1218.76H702.918V1221.88H695.142V1228H691.254V1211.2H703.95V1214.32H695.142ZM719.59 1224.88V1228H706.582V1211.2H719.278V1214.32H710.446V1217.97H718.246V1220.99H710.446V1224.88H719.59ZM733.387 1228L730.147 1223.32H729.955H726.571V1228H722.683V1211.2H729.955C731.443 1211.2 732.731 1211.45 733.819 1211.94C734.923 1212.44 735.771 1213.14 736.363 1214.06C736.955 1214.97 737.251 1216.05 737.251 1217.3C737.251 1218.54 736.947 1219.62 736.339 1220.54C735.747 1221.43 734.899 1222.12 733.795 1222.6L737.563 1228H733.387ZM733.315 1217.3C733.315 1216.35 733.011 1215.63 732.403 1215.14C731.795 1214.62 730.907 1214.37 729.739 1214.37H726.571V1220.22H729.739C730.907 1220.22 731.795 1219.97 732.403 1219.46C733.011 1218.94 733.315 1218.22 733.315 1217.3ZM753.34 1224.88V1228H740.332V1211.2H753.028V1214.32H744.196V1217.97H751.996V1220.99H744.196V1224.88H753.34ZM771.841 1211.2V1228H768.649L760.273 1217.8V1228H756.433V1211.2H759.649L768.001 1221.4V1211.2H771.841ZM783.856 1228.29C782.144 1228.29 780.592 1227.92 779.2 1227.18C777.824 1226.43 776.736 1225.4 775.936 1224.09C775.152 1222.76 774.76 1221.26 774.76 1219.6C774.76 1217.94 775.152 1216.45 775.936 1215.14C776.736 1213.81 777.824 1212.78 779.2 1212.04C780.592 1211.29 782.152 1210.91 783.88 1210.91C785.336 1210.91 786.648 1211.17 787.816 1211.68C789 1212.19 789.992 1212.93 790.792 1213.89L788.296 1216.19C787.16 1214.88 785.752 1214.22 784.072 1214.22C783.032 1214.22 782.104 1214.46 781.288 1214.92C780.472 1215.37 779.832 1216 779.368 1216.82C778.92 1217.63 778.696 1218.56 778.696 1219.6C778.696 1220.64 778.92 1221.57 779.368 1222.38C779.832 1223.2 780.472 1223.84 781.288 1224.3C782.104 1224.75 783.032 1224.98 784.072 1224.98C785.752 1224.98 787.16 1224.31 788.296 1222.98L790.792 1225.29C789.992 1226.26 789 1227.01 787.816 1227.52C786.632 1228.03 785.312 1228.29 783.856 1228.29ZM806.426 1224.88V1228H793.418V1211.2H806.114V1214.32H797.282V1217.97H805.082V1220.99H797.282V1224.88H806.426ZM815.039 1228.29C813.711 1228.29 812.423 1228.11 811.175 1227.76C809.943 1227.39 808.951 1226.92 808.199 1226.34L809.519 1223.42C810.239 1223.94 811.095 1224.37 812.087 1224.69C813.079 1225.01 814.071 1225.17 815.063 1225.17C816.167 1225.17 816.983 1225.01 817.511 1224.69C818.039 1224.35 818.303 1223.91 818.303 1223.37C818.303 1222.97 818.143 1222.64 817.823 1222.38C817.519 1222.11 817.119 1221.9 816.623 1221.74C816.143 1221.58 815.487 1221.4 814.655 1221.21C813.375 1220.9 812.327 1220.6 811.511 1220.3C810.695 1219.99 809.991 1219.5 809.399 1218.83C808.823 1218.16 808.535 1217.26 808.535 1216.14C808.535 1215.17 808.799 1214.29 809.327 1213.5C809.855 1212.7 810.647 1212.07 811.703 1211.61C812.775 1211.14 814.079 1210.91 815.615 1210.91C816.687 1210.91 817.735 1211.04 818.759 1211.3C819.783 1211.55 820.679 1211.92 821.447 1212.4L820.247 1215.35C818.695 1214.47 817.143 1214.03 815.591 1214.03C814.503 1214.03 813.695 1214.21 813.167 1214.56C812.655 1214.91 812.399 1215.38 812.399 1215.95C812.399 1216.53 812.695 1216.96 813.287 1217.25C813.895 1217.52 814.815 1217.79 816.047 1218.06C817.327 1218.37 818.375 1218.67 819.191 1218.98C820.007 1219.28 820.703 1219.76 821.279 1220.42C821.871 1221.07 822.167 1221.96 822.167 1223.08C822.167 1224.04 821.895 1224.92 821.351 1225.72C820.823 1226.5 820.023 1227.13 818.951 1227.59C817.879 1228.06 816.575 1228.29 815.039 1228.29Z" fill="#FEFCD5"/>
<rect x="926" y="1149" width="300" height="120" rx="20" fill="#FD5523"/>
<path d="M993.765 1190.2L986.493 1207H982.653L975.405 1190.2H979.605L984.717 1202.2L989.901 1190.2H993.765ZM995.168 1190.2H999.056V1207H995.168V1190.2ZM1016.05 1203.88V1207H1003.04V1190.2H1015.74V1193.32H1006.91V1196.97H1014.71V1199.99H1006.91V1203.88H1016.05ZM1044.3 1190.2L1038.81 1207H1034.63L1030.93 1195.62L1027.12 1207H1022.97L1017.45 1190.2H1021.48L1025.27 1202.01L1029.23 1190.2H1032.83L1036.67 1202.1L1040.58 1190.2H1044.3ZM1064.97 1198.34H1068.52V1205.15C1067.61 1205.84 1066.56 1206.37 1065.36 1206.74C1064.16 1207.1 1062.95 1207.29 1061.73 1207.29C1059.99 1207.29 1058.42 1206.92 1057.03 1206.18C1055.64 1205.43 1054.54 1204.4 1053.74 1203.09C1052.96 1201.76 1052.56 1200.26 1052.56 1198.6C1052.56 1196.94 1052.96 1195.45 1053.74 1194.14C1054.54 1192.81 1055.64 1191.78 1057.05 1191.04C1058.46 1190.29 1060.04 1189.91 1061.8 1189.91C1063.28 1189.91 1064.61 1190.16 1065.81 1190.66C1067.01 1191.15 1068.02 1191.87 1068.84 1192.82L1066.34 1195.12C1065.14 1193.86 1063.69 1193.22 1062 1193.22C1060.92 1193.22 1059.97 1193.45 1059.14 1193.9C1058.31 1194.34 1057.66 1194.98 1057.2 1195.79C1056.73 1196.61 1056.5 1197.54 1056.5 1198.6C1056.5 1199.64 1056.73 1200.57 1057.2 1201.38C1057.66 1202.2 1058.3 1202.84 1059.12 1203.3C1059.95 1203.75 1060.89 1203.98 1061.95 1203.98C1063.07 1203.98 1064.08 1203.74 1064.97 1203.26V1198.34ZM1082.84 1207L1079.6 1202.32H1079.41H1076.02V1207H1072.14V1190.2H1079.41C1080.9 1190.2 1082.18 1190.45 1083.27 1190.94C1084.38 1191.44 1085.22 1192.14 1085.82 1193.06C1086.41 1193.97 1086.7 1195.05 1086.7 1196.3C1086.7 1197.54 1086.4 1198.62 1085.79 1199.54C1085.2 1200.43 1084.35 1201.12 1083.25 1201.6L1087.02 1207H1082.84ZM1082.77 1196.3C1082.77 1195.35 1082.46 1194.63 1081.86 1194.14C1081.25 1193.62 1080.36 1193.37 1079.19 1193.37H1076.02V1199.22H1079.19C1080.36 1199.22 1081.25 1198.97 1081.86 1198.46C1082.46 1197.94 1082.77 1197.22 1082.77 1196.3ZM1097.92 1207.29C1096.18 1207.29 1094.6 1206.91 1093.19 1206.16C1091.8 1205.41 1090.7 1204.38 1089.9 1203.06C1089.12 1201.74 1088.73 1200.25 1088.73 1198.6C1088.73 1196.95 1089.12 1195.47 1089.9 1194.16C1090.7 1192.83 1091.8 1191.79 1093.19 1191.04C1094.6 1190.29 1096.18 1189.91 1097.92 1189.91C1099.66 1189.91 1101.23 1190.29 1102.62 1191.04C1104.02 1191.79 1105.11 1192.83 1105.91 1194.16C1106.71 1195.47 1107.11 1196.95 1107.11 1198.6C1107.11 1200.25 1106.71 1201.74 1105.91 1203.06C1105.11 1204.38 1104.02 1205.41 1102.62 1206.16C1101.23 1206.91 1099.66 1207.29 1097.92 1207.29ZM1097.92 1203.98C1098.91 1203.98 1099.81 1203.75 1100.61 1203.3C1101.41 1202.84 1102.03 1202.2 1102.48 1201.38C1102.94 1200.57 1103.18 1199.64 1103.18 1198.6C1103.18 1197.56 1102.94 1196.63 1102.48 1195.82C1102.03 1195 1101.41 1194.37 1100.61 1193.92C1099.81 1193.46 1098.91 1193.22 1097.92 1193.22C1096.93 1193.22 1096.03 1193.46 1095.23 1193.92C1094.43 1194.37 1093.8 1195 1093.34 1195.82C1092.89 1196.63 1092.66 1197.56 1092.66 1198.6C1092.66 1199.64 1092.89 1200.57 1093.34 1201.38C1093.8 1202.2 1094.43 1202.84 1095.23 1203.3C1096.03 1203.75 1096.93 1203.98 1097.92 1203.98ZM1118.07 1207.29C1116.36 1207.29 1114.81 1206.92 1113.42 1206.18C1112.04 1205.43 1110.95 1204.4 1110.15 1203.09C1109.37 1201.76 1108.98 1200.26 1108.98 1198.6C1108.98 1196.94 1109.37 1195.45 1110.15 1194.14C1110.95 1192.81 1112.04 1191.78 1113.42 1191.04C1114.81 1190.29 1116.37 1189.91 1118.1 1189.91C1119.55 1189.91 1120.87 1190.17 1122.03 1190.68C1123.22 1191.19 1124.21 1191.93 1125.01 1192.89L1122.51 1195.19C1121.38 1193.88 1119.97 1193.22 1118.29 1193.22C1117.25 1193.22 1116.32 1193.46 1115.51 1193.92C1114.69 1194.37 1114.05 1195 1113.59 1195.82C1113.14 1196.63 1112.91 1197.56 1112.91 1198.6C1112.91 1199.64 1113.14 1200.57 1113.59 1201.38C1114.05 1202.2 1114.69 1202.84 1115.51 1203.3C1116.32 1203.75 1117.25 1203.98 1118.29 1203.98C1119.97 1203.98 1121.38 1203.31 1122.51 1201.98L1125.01 1204.29C1124.21 1205.26 1123.22 1206.01 1122.03 1206.52C1120.85 1207.03 1119.53 1207.29 1118.07 1207.29ZM1140.64 1203.88V1207H1127.64V1190.2H1140.33V1193.32H1131.5V1196.97H1139.3V1199.99H1131.5V1203.88H1140.64ZM1154.44 1207L1151.2 1202.32H1151.01H1147.63V1207H1143.74V1190.2H1151.01C1152.5 1190.2 1153.79 1190.45 1154.87 1190.94C1155.98 1191.44 1156.83 1192.14 1157.42 1193.06C1158.01 1193.97 1158.31 1195.05 1158.31 1196.3C1158.31 1197.54 1158 1198.62 1157.39 1199.54C1156.8 1200.43 1155.95 1201.12 1154.85 1201.6L1158.62 1207H1154.44ZM1154.37 1196.3C1154.37 1195.35 1154.07 1194.63 1153.46 1194.14C1152.85 1193.62 1151.96 1193.37 1150.79 1193.37H1147.63V1199.22H1150.79C1151.96 1199.22 1152.85 1198.97 1153.46 1198.46C1154.07 1197.94 1154.37 1197.22 1154.37 1196.3ZM1169.22 1201.05V1207H1165.33V1201L1158.82 1190.2H1162.95L1167.44 1197.66L1171.93 1190.2H1175.74L1169.22 1201.05ZM1051.36 1219.2H1055.25V1232.83H1063.67V1236H1051.36V1219.2ZM1065.84 1219.2H1069.73V1236H1065.84V1219.2ZM1079.24 1236.29C1077.91 1236.29 1076.62 1236.11 1075.37 1235.76C1074.14 1235.39 1073.15 1234.92 1072.4 1234.34L1073.72 1231.42C1074.44 1231.94 1075.29 1232.37 1076.29 1232.69C1077.28 1233.01 1078.27 1233.17 1079.26 1233.17C1080.37 1233.17 1081.18 1233.01 1081.71 1232.69C1082.24 1232.35 1082.5 1231.91 1082.5 1231.37C1082.5 1230.97 1082.34 1230.64 1082.02 1230.38C1081.72 1230.11 1081.32 1229.9 1080.82 1229.74C1080.34 1229.58 1079.69 1229.4 1078.85 1229.21C1077.57 1228.9 1076.53 1228.6 1075.71 1228.3C1074.89 1227.99 1074.19 1227.5 1073.6 1226.83C1073.02 1226.16 1072.73 1225.26 1072.73 1224.14C1072.73 1223.17 1073 1222.29 1073.53 1221.5C1074.05 1220.7 1074.85 1220.07 1075.9 1219.61C1076.97 1219.14 1078.28 1218.91 1079.81 1218.91C1080.89 1218.91 1081.93 1219.04 1082.96 1219.3C1083.98 1219.55 1084.88 1219.92 1085.65 1220.4L1084.45 1223.35C1082.89 1222.47 1081.34 1222.03 1079.79 1222.03C1078.7 1222.03 1077.89 1222.21 1077.37 1222.56C1076.85 1222.91 1076.6 1223.38 1076.6 1223.95C1076.6 1224.53 1076.89 1224.96 1077.49 1225.25C1078.09 1225.52 1079.01 1225.79 1080.25 1226.06C1081.53 1226.37 1082.57 1226.67 1083.39 1226.98C1084.21 1227.28 1084.9 1227.76 1085.48 1228.42C1086.07 1229.07 1086.37 1229.96 1086.37 1231.08C1086.37 1232.04 1086.09 1232.92 1085.55 1233.72C1085.02 1234.5 1084.22 1235.13 1083.15 1235.59C1082.08 1236.06 1080.77 1236.29 1079.24 1236.29ZM1092.27 1222.37H1086.89V1219.2H1101.53V1222.37H1096.16V1236H1092.27V1222.37Z" fill="#FEFCD5"/>
<path d="M1094.94 1149.06C1095.53 1149.65 1096.47 1149.65 1097.06 1149.06L1106.61 1139.51C1107.19 1138.93 1107.19 1137.98 1106.61 1137.39C1106.02 1136.81 1105.07 1136.81 1104.49 1137.39L1096 1145.88L1087.51 1137.39C1086.93 1136.81 1085.98 1136.81 1085.39 1137.39C1084.81 1137.98 1084.81 1138.93 1085.39 1139.51L1094.94 1149.06ZM1094.5 885V957.5H1097.5V885H1094.5ZM1094.5 957.5V1148H1097.5V957.5H1094.5Z" fill="#FD5523"/>
<path d="M824.5 955.998L824.5 954.498L823 954.498L823 955.998L824.5 955.998ZM823.439 1149.06C824.025 1149.64 824.975 1149.64 825.56 1149.06L835.106 1139.51C835.692 1138.93 835.692 1137.98 835.106 1137.39C834.521 1136.81 833.571 1136.81 832.985 1137.39L824.5 1145.88L816.014 1137.39C815.429 1136.81 814.479 1136.81 813.893 1137.39C813.307 1137.98 813.307 1138.93 813.893 1139.51L823.439 1149.06ZM1035 955.999L1035 957.499L1036.5 957.499L1036.5 955.999L1035 955.999ZM823 955.998L823 1148L826 1148L826 955.998L823 955.998ZM1033.5 884.502L1033.5 955.999L1036.5 955.999L1036.5 884.502L1033.5 884.502ZM1035 954.499L824.5 954.498L824.5 957.498L1035 957.499L1035 954.499Z" fill="#FD5523"/>
<path d="M1101.94 766.061C1102.53 766.646 1103.47 766.646 1104.06 766.061L1113.61 756.515C1114.19 755.929 1114.19 754.979 1113.61 754.393C1113.02 753.808 1112.07 753.808 1111.49 754.393L1103 762.879L1094.51 754.393C1093.93 753.808 1092.98 753.808 1092.39 754.393C1091.81 754.979 1091.81 755.929 1092.39 756.515L1101.94 766.061ZM1101.5 664V765H1104.5V664H1101.5Z" fill="#FD5523"/>
<path d="M954.061 605.061C954.646 604.475 954.646 603.525 954.061 602.939L944.515 593.393C943.929 592.808 942.979 592.808 942.393 593.393C941.808 593.979 941.808 594.929 942.393 595.515L950.879 604L942.393 612.485C941.808 613.071 941.808 614.021 942.393 614.607C942.979 615.192 943.929 615.192 944.515 614.607L954.061 605.061ZM861 605.5H953V602.5H861V605.5Z" fill="#FD5523"/>
<path d="M562.061 605.061C562.646 604.475 562.646 603.525 562.061 602.939L552.515 593.393C551.929 592.808 550.979 592.808 550.393 593.393C549.808 593.979 549.808 594.929 550.393 595.515L558.879 604L550.393 612.485C549.808 613.071 549.808 614.021 550.393 614.607C550.979 615.192 551.929 615.192 552.515 614.607L562.061 605.061ZM471 605.5H561V602.5H471V605.5Z" fill="#FD5523"/>
<path d="M319.939 545.061C320.525 545.646 321.475 545.646 322.061 545.061L331.607 535.515C332.192 534.929 332.192 533.979 331.607 533.393C331.021 532.808 330.071 532.808 329.485 533.393L321 541.879L312.515 533.393C311.929 532.808 310.979 532.808 310.393 533.393C309.808 533.979 309.808 534.929 310.393 535.515L319.939 545.061ZM319.5 470V544H322.5V470H319.5Z" fill="#FD5523"/>
<path d="M319.939 351.061C320.525 351.647 321.475 351.647 322.061 351.061L331.607 341.515C332.192 340.929 332.192 339.98 331.607 339.394C331.021 338.808 330.071 338.808 329.485 339.394L321 347.879L312.515 339.394C311.929 338.808 310.979 338.808 310.393 339.394C309.808 339.98 309.808 340.929 310.393 341.515L319.939 351.061ZM319.692 189.385V269.597H322.692V189.385H319.692ZM319.5 269.789V350.001H322.5V269.789H319.5ZM321.096 268.193C320.215 268.193 319.5 268.907 319.5 269.789H322.5C322.5 270.564 321.871 271.193 321.096 271.193V268.193ZM319.692 269.597C319.692 268.821 320.321 268.193 321.096 268.193V271.193C321.977 271.193 322.692 270.478 322.692 269.597H319.692Z" fill="#FD5523"/>
<path d="M434.497 824.5L434.497 823L432.997 823L432.997 824.5L434.497 824.5ZM433.436 1147.06C434.021 1147.65 434.971 1147.65 435.557 1147.06L445.103 1137.52C445.689 1136.93 445.689 1135.98 445.103 1135.39C444.517 1134.81 443.567 1134.81 442.982 1135.39L434.496 1143.88L426.011 1135.39C425.425 1134.81 424.476 1134.81 423.89 1135.39C423.304 1135.98 423.304 1136.93 423.89 1137.52L433.436 1147.06ZM955.498 823.003L434.497 823L434.497 826L955.498 826.003L955.498 823.003ZM432.997 824.5L432.996 1146L435.996 1146L435.997 824.5L432.997 824.5Z" fill="#FD5523"/>
<path d="M1074.94 1487.06C1075.53 1487.65 1076.47 1487.65 1077.06 1487.06L1086.61 1477.51C1087.19 1476.93 1087.19 1475.98 1086.61 1475.39C1086.02 1474.81 1085.07 1474.81 1084.49 1475.39L1076 1483.88L1067.51 1475.39C1066.93 1474.81 1065.98 1474.81 1065.39 1475.39C1064.81 1475.98 1064.81 1476.93 1065.39 1477.51L1074.94 1487.06ZM1074.5 1269V1486H1077.5V1269H1074.5Z" fill="#FD5523"/>
<path d="M1318.5 825.003L1320 825.003L1320 823.503L1318.5 823.503L1318.5 825.003ZM1318.5 1549L1318.5 1550.5L1320 1550.5L1320 1549L1318.5 1549ZM1225.31 1547.94C1224.72 1548.53 1224.72 1549.48 1225.31 1550.06L1234.85 1559.61C1235.44 1560.19 1236.39 1560.19 1236.98 1559.61C1237.56 1559.02 1237.56 1558.07 1236.98 1557.49L1228.49 1549L1236.98 1540.52C1237.56 1539.93 1237.56 1538.98 1236.98 1538.39C1236.39 1537.81 1235.44 1537.81 1234.85 1538.39L1225.31 1547.94ZM1253 826.503L1318.5 826.503L1318.5 823.503L1253 823.503L1253 826.503ZM1317 825.003L1317 1549L1320 1549L1320 825.003L1317 825.003ZM1318.5 1547.5L1226.37 1547.5L1226.37 1550.5L1318.5 1550.5L1318.5 1547.5Z" fill="#FD5523"/>
<path d="M385.999 1361L384.499 1361L384.499 1362.5L385.999 1362.5L385.999 1361ZM499 1361L500.5 1361L500.5 1359.5L499 1359.5L499 1361ZM497.939 1488.06C498.525 1488.65 499.475 1488.65 500.06 1488.06L509.606 1478.52C510.192 1477.93 510.192 1476.98 509.606 1476.4C509.02 1475.81 508.071 1475.81 507.485 1476.4L499 1484.88L490.514 1476.4C489.929 1475.81 488.979 1475.81 488.393 1476.4C487.807 1476.98 487.807 1477.93 488.393 1478.52L497.939 1488.06ZM384.499 1267L384.499 1361L387.499 1361L387.499 1267L384.499 1267ZM385.999 1362.5L499 1362.5L499 1359.5L385.999 1359.5L385.999 1362.5ZM497.5 1361L497.5 1487L500.5 1487L500.5 1361L497.5 1361Z" fill="#FD5523"/>
<path d="M385.999 1361.14L385.999 1362.64L387.499 1362.64L387.499 1361.14L385.999 1361.14ZM274.499 1361.14L274.499 1359.64L272.999 1359.64L272.999 1361.14L274.499 1361.14ZM273.439 1487.07C274.025 1487.65 274.975 1487.65 275.56 1487.07L285.106 1477.52C285.692 1476.94 285.692 1475.99 285.106 1475.4C284.521 1474.81 283.571 1474.81 282.985 1475.4L274.5 1483.89L266.014 1475.4C265.429 1474.81 264.479 1474.81 263.893 1475.4C263.307 1475.99 263.307 1476.94 263.893 1477.52L273.439 1487.07ZM384.499 1267.01L384.499 1361.14L387.499 1361.14L387.499 1267.01L384.499 1267.01ZM385.999 1359.64L274.499 1359.64L274.499 1362.64L385.999 1362.64L385.999 1359.64ZM272.999 1361.14L273 1486.01L276 1486.01L275.999 1361.14L272.999 1361.14Z" fill="#FD5523"/>
<path d="M561 1207L562.5 1207L562.5 1205.5L561 1205.5L561 1207ZM534.939 1205.94C534.354 1206.53 534.354 1207.47 534.939 1208.06L544.485 1217.61C545.071 1218.19 546.021 1218.19 546.607 1217.61C547.192 1217.02 547.192 1216.07 546.607 1215.49L538.121 1207L546.607 1198.51C547.192 1197.93 547.192 1196.98 546.607 1196.39C546.021 1195.81 545.071 1195.81 544.485 1196.39L534.939 1205.94ZM562.5 1486L562.5 1207L559.5 1207L559.5 1486L562.5 1486ZM561 1205.5L536 1205.5L536 1208.5L561 1208.5L561 1205.5Z" fill="#FD5523"/>
<path d="M192 1215L192 1213.5L190.5 1213.5L190.5 1215L192 1215ZM237.06 1216.07C237.646 1215.48 237.646 1214.53 237.061 1213.94L227.516 1204.4C226.93 1203.81 225.98 1203.81 225.394 1204.4C224.808 1204.98 224.808 1205.93 225.394 1206.52L233.878 1215L225.392 1223.49C224.806 1224.07 224.806 1225.02 225.392 1225.61C225.978 1226.2 226.927 1226.2 227.513 1225.61L237.06 1216.07ZM193.5 1487L193.5 1215L190.5 1215L190.5 1487L193.5 1487ZM192 1216.5L236 1216.5L236 1213.5L192 1213.5L192 1216.5Z" fill="#FD5523"/>
<path d="M1171.56 883.937C1170.97 883.352 1170.03 883.352 1169.44 883.937L1159.89 893.483C1159.31 894.069 1159.31 895.019 1159.89 895.605C1160.48 896.19 1161.43 896.19 1162.01 895.605L1170.5 887.119L1178.99 895.605C1179.57 896.19 1180.52 896.19 1181.11 895.605C1181.69 895.019 1181.69 894.069 1181.11 893.483L1171.56 883.937ZM1172 1149V884.998H1169V1149H1172Z" fill="#FD5523"/>
<path d="M730.999 859L730.999 857.5L729.499 857.5L729.499 859L730.999 859ZM954.06 860.058C954.646 859.473 954.646 858.523 954.06 857.937L944.514 848.391C943.928 847.805 942.979 847.805 942.393 848.391C941.807 848.977 941.807 849.927 942.393 850.513L950.878 858.998L942.393 867.483C941.807 868.069 941.807 869.019 942.393 869.604C942.979 870.19 943.929 870.19 944.514 869.604L954.06 860.058ZM732.499 1146L732.499 859L729.499 859L729.499 1146L732.499 1146ZM730.999 860.5L952.999 860.498L952.999 857.498L730.999 857.5L730.999 860.5Z" fill="#FD5523"/>
<path d="M346 792L346 790.5L344.5 790.5L344.5 792L346 792ZM954.061 793.061C954.647 792.475 954.647 791.525 954.061 790.939L944.515 781.394C943.929 780.808 942.979 780.808 942.393 781.394C941.808 781.979 941.808 782.929 942.393 783.515L950.879 792L942.393 800.485C941.808 801.071 941.808 802.021 942.393 802.607C942.979 803.192 943.929 803.192 944.515 802.607L954.061 793.061ZM347.501 1147.5L347.5 792L344.5 792L344.501 1147.5L347.501 1147.5ZM346 793.5L953 793.5L953 790.5L346 790.5L346 793.5Z" fill="#FD5523"/>
<path d="M1074.94 1707.06C1075.53 1707.65 1076.47 1707.65 1077.06 1707.06L1086.61 1697.51C1087.19 1696.93 1087.19 1695.98 1086.61 1695.39C1086.02 1694.81 1085.07 1694.81 1084.49 1695.39L1076 1703.88L1067.51 1695.39C1066.93 1694.81 1065.98 1694.81 1065.39 1695.39C1064.81 1695.98 1064.81 1696.93 1065.39 1697.51L1074.94 1707.06ZM1074.5 1604V1706H1077.5V1604H1074.5Z" fill="#FD5523"/>
<path d="M927.061 1187.06C927.646 1186.47 927.646 1185.53 927.061 1184.94L917.515 1175.39C916.929 1174.81 915.979 1174.81 915.393 1175.39C914.808 1175.98 914.808 1176.93 915.393 1177.51L923.879 1186L915.393 1194.49C914.808 1195.07 914.808 1196.02 915.393 1196.61C915.979 1197.19 916.929 1197.19 917.515 1196.61L927.061 1187.06ZM881 1187.5H926V1184.5H881V1187.5Z" fill="#FD5523"/>
<path d="M879.939 1226.94C879.354 1227.53 879.354 1228.47 879.939 1229.06L889.485 1238.61C890.071 1239.19 891.021 1239.19 891.607 1238.61C892.192 1238.02 892.192 1237.07 891.607 1236.49L883.121 1228L891.607 1219.51C892.192 1218.93 892.192 1217.98 891.607 1217.39C891.021 1216.81 890.071 1216.81 889.485 1217.39L879.939 1226.94ZM881 1229.5H926V1226.5H881V1229.5Z" fill="#FD5523"/>
</svg>
