<svg width="137" height="125" viewBox="0 0 137 125" fill="none" xmlns="http://www.w3.org/2000/svg">
<path fill-rule="evenodd" clip-rule="evenodd" d="M61.1656 109.507C63.0637 109.736 65.4455 109.835 68.2956 109.606C74.2288 101.366 74.0791 82.483 58.4138 66.0345C57.8425 65.4346 57.8656 64.4851 58.4655 63.9138C59.0654 63.3425 60.0149 63.3656 60.5862 63.9655C64.7263 68.3126 67.8718 72.876 70.1457 77.4258C71.2379 73.6704 72.258 68.9125 70.5156 63.7278C68.2215 56.9013 60.8901 48.9185 40.6804 42.2957C39.6112 48.7412 40.2374 57.9856 43.7974 66.0572C47.6056 74.6914 54.7005 81.8694 66.6422 83.0068C67.4669 83.0853 68.0718 83.8175 67.9932 84.6422C67.9147 85.4669 67.1825 86.0718 66.3578 85.9932C53.0995 84.7306 45.1944 76.6586 41.0526 67.2678C36.9432 57.9508 36.4693 47.2236 38.0357 40.1746C38.2098 39.3913 38.9669 38.8884 39.7492 39.0208C39.9775 38.9819 40.2182 38.9955 40.4541 39.0704C61.8828 45.8771 70.5709 54.4749 73.3594 62.7722C75.7039 69.7487 73.6927 76.2116 72.4775 80.1167C72.301 80.6837 72.1413 81.1968 72.0142 81.6497C75.2431 90.0115 75.6189 98.0822 73.9219 104.405C77.1836 100.511 80.703 94.7333 82.5422 87.1466C82.7374 86.3415 83.5483 85.847 84.3534 86.0422C85.1585 86.2374 85.653 87.0483 85.4578 87.8534C82.8919 98.4378 77.2466 105.801 72.9972 109.738C96.6052 107.242 115 87.2694 115 63C115 37.0426 93.9574 16 68 16C42.0426 16 21 37.0426 21 63C21 75.0831 25.5597 86.1012 33.0522 94.4275L33.6991 94.9936L38.4142 89.6049L44 106L27.0085 102.64L31.6515 97.3337C23.1887 88.3774 18 76.2946 18 63C18 35.3858 40.3858 13 68 13C95.6142 13 118 35.3858 118 63C118 90.6142 95.6142 113 68 113C65.5383 113 63.1182 112.822 60.7517 112.479C59.8758 112.371 59.0869 112.238 58.3861 112.094C57.2549 111.862 56.3554 111.603 55.6933 111.38L55.6735 111.469H55.6733L55.6931 111.38C55.6003 111.349 55.5121 111.318 55.4286 111.289C55.0891 111.169 54.8271 111.063 54.6436 110.985C54.5518 110.945 54.4796 110.913 54.4272 110.888C54.401 110.876 54.3797 110.866 54.3633 110.858L54.3425 110.848L54.3349 110.844L54.3318 110.843L54.3304 110.842C54.3298 110.842 54.3292 110.842 55 109.5L55.6659 108.156L55.6898 108.167C55.7152 108.179 55.7597 108.199 55.8232 108.226C55.9502 108.281 56.1531 108.363 56.4308 108.461C56.8636 108.615 57.4784 108.808 58.2717 108.997L58.2727 108.992C59.2267 109.193 60.1913 109.365 61.1656 109.507ZM55 109.5L54.3292 110.842C53.5882 110.471 53.2879 109.57 53.6584 108.829C54.0279 108.09 54.9252 107.789 55.6651 108.156L55 109.5ZM94.4026 54.555C94.0439 54.455 93.6477 54.4876 93.2933 54.6769C81.0907 61.1946 75.6457 68.6607 74.0344 75.5654C72.4323 82.4305 74.6946 88.437 77.3132 91.904C77.8124 92.5651 78.7531 92.6963 79.4142 92.197C80.0752 91.6977 80.2064 90.757 79.7071 90.096C77.5312 87.215 75.5891 82.1039 76.9559 76.2471C78.2663 70.6318 82.6888 64.0449 93.5144 57.9755C94.2523 64.7563 94.9257 72.1319 94.1669 78.5746C93.34 85.5961 90.8694 91.078 85.3668 93.6402C84.6158 93.9899 84.2905 94.8822 84.6402 95.6332C84.9899 96.3842 85.8822 96.7095 86.6332 96.3598C93.5391 93.1442 96.2721 86.3484 97.1463 78.9254C98.0206 71.5019 97.0933 63.0195 96.2969 55.8347C96.2056 55.0114 95.4642 54.4179 94.6408 54.5091C94.559 54.5182 94.4794 54.5337 94.4026 54.555Z" fill="#49C755"/>
</svg>
